<svg width="1111" height="167" viewBox="0 0 1111 167" fill="none" xmlns="http://www.w3.org/2000/svg">
<path d="M416.089 99.625H423.151C427.578 99.625 430.069 96.5547 430.069 92.2695C430.069 88.0586 427.51 84.9844 423.151 84.9844H414.567V98.0547C414.567 99.0547 415.12 99.625 416.089 99.625ZM422.318 77.5625C426.128 77.5625 428.271 74.7031 428.271 71.0625C428.271 67.4219 426.196 64.7812 422.182 64.7812H414.567V77.5625H422.318ZM405.502 64.7812H401V56.8555H422.25C431.111 56.8555 437.476 61.5664 437.476 69.9219C437.476 75.5625 434.5 79.2031 431.524 80.7734V80.918C436.855 82.5586 439.415 87.6992 439.415 92.8398C439.415 102.98 431.595 107.551 422.458 107.551H410.205C406.956 107.551 405.502 106.121 405.502 102.691" fill="#E1E1E1"/>
<path d="M458.798 66.3516C458.798 65.3516 458.242 64.7812 457.272 64.7812H454.3V56.8555H463.156C466.481 56.8555 467.863 58.3555 467.863 61.7109V98.0547C467.863 99.0547 468.42 99.6211 469.385 99.6211H480.117C481.086 99.6211 481.639 99.0547 481.639 98.0547V94.9844H489.874V102.695C489.874 106.121 488.489 107.551 485.168 107.551H463.505C460.18 107.551 458.798 106.121 458.798 102.695" fill="#E1E1E1"/>
<path d="M526.35 99.6953C535.211 99.6953 542.341 91.9844 542.341 81.8438C542.341 72.1328 535.211 64.707 526.35 64.707C517.494 64.707 510.364 72.1328 510.364 81.8438C510.364 91.9844 517.494 99.6953 526.35 99.6953ZM526.35 56C540.815 56 551.755 67.3516 551.755 81.8438C551.755 96.7656 540.815 108.406 526.35 108.406C511.886 108.406 500.95 96.7656 500.95 81.8438C500.95 67.3516 511.886 56 526.35 56Z" fill="#E1E1E1"/>
<path d="M590.514 56C596.815 56 609.132 58.7109 609.132 67.3516V72.9922H600.897V70.1367C600.897 66.4219 595.012 64.707 590.722 64.707C581.933 64.707 575.012 71.207 575.012 81.7734C575.012 91.6992 582.07 99.6953 590.999 99.6953C600.272 99.6953 605.88 92.9844 605.88 92.9844L610.655 99.6953C610.655 99.6953 603.524 108.406 590.862 108.406C575.841 108.406 565.598 96.7695 565.598 81.7734C565.598 67.1367 576.257 56 590.514 56Z" fill="#E1E1E1"/>
<path d="M629.141 66.3516C629.141 65.3516 628.584 64.7812 627.615 64.7812H624.638V56.8555H633.499C636.82 56.8555 638.206 58.3555 638.206 61.7109V77.4883H641.667C643.465 77.4883 644.783 77.3477 645.612 75.8477L655.51 56.8555H665.476L654.401 77.7031C652.879 80.5586 651.288 81.4141 651.288 81.4141V81.5586C651.288 81.5586 652.947 81.9883 654.469 85.0586L660.698 97.9805C661.391 99.4805 662.568 99.6211 664.159 99.6211H665.476V107.551H660.285C656.616 107.551 655.026 107.051 653.431 103.766L645.404 87.1289C644.575 85.4844 643.049 85.4141 641.114 85.4141H638.206V107.551H629.141" fill="#E1E1E1"/>
<path d="M724.38 99.9805C729.64 99.9805 732.824 96.8398 732.824 90.6992V85.1992H725.418C719.674 85.1992 715.932 87.6992 715.932 92.625C715.932 96.5547 719.117 99.9805 724.38 99.9805ZM714.967 80.5586V80.418C714.967 80.418 708.942 77.918 708.942 69.3516C708.942 61.2109 715.311 56 723.896 56C727.769 56 730.677 56.8555 730.677 56.8555L728.53 64.1367C728.53 64.1367 726.8 63.7109 725.21 63.7109C720.779 63.7109 717.939 66.707 717.939 70.4922C717.939 73.3477 719.465 77.2031 725.418 77.2031H732.824V71.1328H741.613V77.2031H747.497V85.1992H741.613V91.1992C741.613 101.551 735.176 108.406 724.38 108.406C713.998 108.406 706.799 101.551 706.799 92.6953C706.799 87.8437 709.639 82.2031 714.967 80.5586Z" fill="#E1E1E1"/>
<path d="M777.521 102.406H779.664C780.633 102.406 781.118 101.836 781.186 100.836L784.375 59.6406H793.788L803.887 83.7734C805.072 86.6992 806.31 90.5547 806.31 90.5547H806.447C806.447 90.5547 807.696 86.6992 808.87 83.7734L818.98 59.6406H828.393L831.574 100.836C831.642 101.836 832.127 102.406 833.096 102.406H835.247V110.332H827.424C824.168 110.332 823.062 108.906 822.789 105.477L821.123 82.9141C820.851 79.5586 821.055 75.0625 821.055 75.0625H820.919C820.919 75.0625 819.465 80.0586 818.215 82.9141L810.055 101.621H802.717L794.545 82.9141C793.303 80.0586 791.849 74.9883 791.849 74.9883H791.713C791.713 74.9883 791.917 79.5586 791.645 82.9141L790.047 105.477C789.774 108.906 788.593 110.332 785.344 110.332H777.521" fill="#E1E1E1"/>
<path d="M873.662 102.477C882.522 102.477 889.649 94.7656 889.649 84.6289C889.649 74.918 882.522 67.4922 873.662 67.4922C864.801 67.4922 857.667 74.918 857.667 84.6289C857.667 94.7656 864.801 102.477 873.662 102.477ZM873.662 58.7812C888.127 58.7812 899.058 70.1328 899.058 84.6289C899.058 99.5508 888.127 111.188 873.662 111.188C859.201 111.188 848.258 99.5508 848.258 84.6289C848.258 70.1328 859.201 58.7812 873.662 58.7812Z" fill="#E1E1E1"/>
<path d="M933.948 83.4141C938.514 83.4141 941.218 80.4883 941.218 75.418C941.218 70.4219 938.514 67.5625 934.084 67.5625H926.753V83.4141H933.948ZM917.681 67.5625H913.182V59.6406H935.197C944.194 59.6406 950.495 65.3516 950.495 74.918C950.495 84.0586 944.399 87.8437 942.324 88.2695V88.4141C942.324 88.4141 943.846 89.1289 944.747 90.9844L949.526 100.766C950.283 102.266 951.453 102.406 952.987 102.406H953.876V110.332H949.109C945.436 110.332 943.846 109.762 942.256 106.551L935.955 93.7695C934.917 91.7695 933.88 91.4102 931.32 91.4102H926.753V110.332H917.681" fill="#E1E1E1"/>
<path d="M980.738 67.5625H973.195C972.226 67.5625 971.673 68.1367 971.673 69.1328V72.207H963.718V64.2109C963.718 60.8516 964.823 59.6406 968.137 59.6406H1002.41C1005.72 59.6406 1006.84 60.8516 1006.84 64.2109V72.207H998.876V69.1328C998.876 68.1367 998.323 67.5625 997.354 67.5625H989.803V110.332H980.738" fill="#E1E1E1"/>
<path d="M1041.17 89.6289L1036.94 76.918C1036.04 74.1328 1035 69.3516 1035 69.3516H1034.87C1034.87 69.3516 1033.83 74.1328 1032.93 76.918L1028.7 89.6289H1041.17ZM1012.37 102.406H1013.47C1014.65 102.406 1015.21 102.121 1015.62 100.836L1030.22 59.6406H1039.71L1054.25 100.836C1054.66 102.121 1055.22 102.406 1056.39 102.406H1057.5V110.332H1052.1C1048.64 110.332 1047.39 109.402 1046.29 106.191L1043.24 97.3398H1026.63L1023.58 106.191C1022.48 109.402 1021.3 110.332 1017.84 110.332H1012.37" fill="#E1E1E1"/>
<path d="M1091.07 83.4141C1095.64 83.4141 1098.33 80.4883 1098.33 75.418C1098.33 70.4219 1095.64 67.5625 1091.21 67.5625H1083.87V83.4141H1091.07ZM1074.8 67.5625H1070.31V59.6406H1092.31C1101.31 59.6406 1107.61 65.3516 1107.61 74.918C1107.61 84.0586 1101.52 87.8437 1099.45 88.2695V88.4141C1099.45 88.4141 1100.97 89.1289 1101.87 90.9844L1106.64 100.766C1107.41 102.266 1108.58 102.406 1110.1 102.406H1111V110.332H1106.22C1102.56 110.332 1100.97 109.762 1099.38 106.551L1093.08 93.7695C1092.04 91.7695 1091 91.4102 1088.44 91.4102H1083.87V110.332H1074.8" fill="#E1E1E1"/>
<path d="M49.4684 81.0736L0.5625 70.1294V37.2511L49.4684 43.2455V81.0736Z" fill="#898989"/>
<path d="M85.0342 136.229L27.085 116.57V81.0038L85.0342 94.7934V136.229Z" fill="#E1E1E1"/>
<path d="M121.836 97.2744L53.8504 82.0606V43.783L121.836 52.1066V97.2744Z" fill="#898989"/>
<path d="M228.239 53.1877V99.0235L209.238 103.275L178.057 110.25H178.048L146.861 103.275L127.861 99.0235V53.1877L178.048 59.337H178.057" fill="#6C6D70"/>
<path d="M173.484 166.238L90.2968 138.015V96.0476L173.484 115.838V166.238Z" fill="#6C6D70"/>
<path d="M85.0342 41.8456L27.085 35.5657V0L85.0342 0.409954V41.8456Z" fill="#E1E1E1"/>
<path d="M173.484 51.4325L90.2968 42.4135V0.449432L173.484 1.03248V51.4325Z" fill="#6C6D70"/>
<path d="M270.054 136.229L328 116.57V81.0038L270.054 94.7934V136.229Z" fill="#6C6D70"/>
<path d="M233.252 97.2744L301.244 82.0606V43.783L233.252 52.1066V97.2744Z" fill="#E1E1E1"/>
<path d="M181.601 166.238L264.791 138.015V96.0476L181.601 115.838V166.238Z" fill="#898989"/>
<path d="M270.054 41.8456L328 35.5657V0L270.054 0.409954V41.8456Z" fill="#E1E1E1"/>
<path d="M181.601 51.4325L264.791 42.4135V0.449432L181.601 1.03248V51.4325Z" fill="#898989"/>
<path d="M228.239 53.1877V99.0235L209.238 103.275L178.057 110.25H178.048V59.337H178.057" fill="#454646"/>
</svg>
