<svg viewBox="359.45000000000005 354.58064516129025 1603.7000000000003 1024.959677419355" fill="none" xmlns="http://www.w3.org/2000/svg" xmlns:xlink="http://www.w3.org/1999/xlink" overflow="visible" width="1603.7000000000003px" height="1024.959677419355px"><g id="Master/Scene/Study"><g id="Desk"><path id="Fill 1" fill-rule="evenodd" clip-rule="evenodd" d="M767.187 1159.41L365.941 1373.84H1300.34L1530.33 1159.41H767.187Z" fill="#FFF5EE"/><path id="Fill 2" fill-rule="evenodd" clip-rule="evenodd" d="M509.928 1331.85C508.557 1338.59 512.913 1345.17 519.657 1346.54C520.494 1346.71 521.33 1346.79 522.153 1346.79C527.955 1346.79 533.151 1342.72 534.352 1336.81L628.288 874.919C628.403 874.357 628.464 873.798 628.5 873.242L603.704 870.743L509.928 1331.85Z" fill="#5BA092"/><path id="Fill 4" fill-rule="evenodd" clip-rule="evenodd" d="M711.911 844.699L801.988 1336.18C803.09 1342.19 808.33 1346.4 814.232 1346.4C814.976 1346.4 815.734 1346.33 816.492 1346.19C823.261 1344.95 827.744 1338.46 826.504 1331.69L736.865 842.599L711.943 840.088C711.656 841.568 711.623 843.124 711.911 844.699" fill="#5BA092"/><path id="Fill 6" fill-rule="evenodd" clip-rule="evenodd" d="M920.337 1189.46C919.201 1196.25 923.784 1202.67 930.571 1203.8C931.268 1203.92 931.959 1203.98 932.643 1203.98C938.622 1203.98 943.899 1199.66 944.919 1193.57L1001.54 855.194C1001.73 854.057 1001.75 852.934 1001.63 851.841L976.024 856.657L920.337 1189.46Z" fill="#5BA092"/><path id="Fill 8" fill-rule="evenodd" clip-rule="evenodd" d="M1191.75 1200.04L1091.38 799.901C1091.25 799.358 1091.07 798.839 1090.87 798.334L1066.85 802.853C1066.84 803.879 1066.95 804.921 1067.21 805.965L1167.58 1206.1C1169 1211.76 1174.08 1215.53 1179.66 1215.53C1180.66 1215.53 1181.68 1215.41 1182.7 1215.15C1189.37 1213.48 1193.43 1206.71 1191.75 1200.04" fill="#5BA092"/><path id="Fill 10" fill-rule="evenodd" clip-rule="evenodd" d="M508.844 900.22V867.859L978.838 829.817L1171.65 797.456V829.817L797.385 900.22H508.844Z" fill="#5BA092"/><path id="Fill 12" fill-rule="evenodd" clip-rule="evenodd" d="M508.844 867.858L978.838 797.457H1171.65L797.385 867.858H508.844Z" fill="#2F6858"/><path id="Fill 14" fill-rule="evenodd" clip-rule="evenodd" d="M844.141 833.254H822.194L836.98 788.494H773.594L756.188 838.692L754.937 841.759C754.594 842.599 754.447 843.504 754.504 844.409C754.706 847.569 757.33 850.029 760.496 850.029H844.141C848.775 850.029 852.53 846.274 852.53 841.642C852.53 837.009 848.775 833.254 844.141 833.254" fill="#B9B3B8"/><path id="Fill 16" fill-rule="evenodd" clip-rule="evenodd" d="M622.906 594.236L986.563 576.68C995.405 576.255 1002.82 583.289 1002.85 592.142L1003.5 762.839C1003.53 770.929 997.347 777.689 989.286 778.379L622.906 809.733V594.236Z" fill="#010101"/><path id="Fill 20" fill-rule="evenodd" clip-rule="evenodd" d="M608.348 594.236H622.906V809.733H608.348C598.388 809.733 590.316 801.661 590.316 791.704V612.265C590.316 602.308 598.388 594.236 608.348 594.236" fill="#B9B3B8"/></g><g id="UI"><g id="UI Simple"><path id="Fill 1_2" fill-rule="evenodd" clip-rule="evenodd" d="M715.145 434.389V765.636L1076.19 638.708V374.179L715.145 434.389Z" fill="#E3D4C5"/><path id="Fill 2_2" fill-rule="evenodd" clip-rule="evenodd" d="M859.291 549.815L754.172 568.673V483.812L859.291 466.712V549.815Z" fill="#CDB1AA"/><path id="Fill 3" fill-rule="evenodd" clip-rule="evenodd" d="M859.291 362.47L754.172 364.379V464.43L859.291 446.62V362.47Z" fill="#CDB1AA"/><path id="Fill 4_2" fill-rule="evenodd" clip-rule="evenodd" d="M859.291 648.294L754.172 670.82V590.72L859.291 568.859V648.294Z" fill="#CDB1AA"/><path id="Fill 5" fill-rule="evenodd" clip-rule="evenodd" d="M754.172 696.487V790.253L860.095 750.965L859.291 674.674L754.172 696.487Z" fill="#CDB1AA"/><path id="Fill 6_2" fill-rule="evenodd" clip-rule="evenodd" d="M1093.46 587.75L908.859 646.158V454.921L1093.46 416.297V587.75Z" fill="#94C0E9"/><path id="Fill 6 Copy" fill-rule="evenodd" clip-rule="evenodd" d="M952.541 496.354L917.371 507.524V470.954L952.541 463.568V496.354Z" fill="white"/><path id="Fill 6 Copy 2" fill-rule="evenodd" clip-rule="evenodd" d="M952.541 537.839L917.371 549.281V511.815L952.541 500.93V537.839Z" fill="white"/><path id="Fill 6 Copy 3" fill-rule="evenodd" clip-rule="evenodd" d="M952.541 579.596L917.371 591.039V553.573L952.541 542.688V579.596Z" fill="white"/><path id="Fill 6 Copy 4" fill-rule="evenodd" clip-rule="evenodd" d="M952.541 621.354L917.371 632.797V595.331L952.541 584.446V621.354Z" fill="white"/><path id="Fill 7" fill-rule="evenodd" clip-rule="evenodd" d="M908.845 463.917C908.845 463.917 906.459 451.875 912.44 450.348L1087.92 412.701C1090.44 412.158 1094.65 411.011 1093.46 423.039C1094 425.562 908.845 463.917 908.845 463.917Z" fill="#3973B0"/></g><path id="Fill 24" fill-rule="evenodd" clip-rule="evenodd" d="M921.766 455.876C921.766 457.697 920.29 459.172 918.469 459.172C916.648 459.172 915.172 457.697 915.172 455.876C915.172 454.056 916.648 452.579 918.469 452.579C920.29 452.579 921.766 454.056 921.766 455.876" fill="#F4F0F0"/><path id="Fill 26" fill-rule="evenodd" clip-rule="evenodd" d="M931.657 453.678C931.657 455.499 930.181 456.974 928.36 456.974C926.538 456.974 925.062 455.499 925.062 453.678C925.062 451.857 926.538 450.381 928.36 450.381C930.181 450.381 931.657 451.857 931.657 453.678" fill="#F4F0F0"/><path id="Fill 28" fill-rule="evenodd" clip-rule="evenodd" d="M940.45 451.48C940.45 453.301 938.974 454.776 937.153 454.776C935.332 454.776 933.855 453.301 933.855 451.48C933.855 449.66 935.332 448.183 937.153 448.183C938.974 448.183 940.45 449.66 940.45 451.48" fill="#F4F0F0"/><path id="Fill 6 Copy 5" fill-rule="evenodd" clip-rule="evenodd" d="M1085.53 578.951L969.027 615.711V456.974L1085.53 430.601V578.951Z" fill="white"/><mask id="mask0_413_1058229bf889ec-c7c8-428f-9116-441d554e3f15" style="mask-type:alpha" maskUnits="userSpaceOnUse" x="969" y="430" width="117" height="186" fill="#ffffff"><path id="Fill 6 Copy 5_2" fill-rule="evenodd" clip-rule="evenodd" d="M1085.53 578.951L969.027 615.711V456.974L1085.53 430.601V578.951Z" fill="#ffffff"/></mask><g mask="url(#mask0_413_1058229bf889ec-c7c8-428f-9116-441d554e3f15)"><g id="Patterns" transform="translate(937.152 403.129) scale(1.095145337522242 1.0988919319362815)"><g id="Patterns/Pattern 1"><path id="Pattern" fill-rule="evenodd" clip-rule="evenodd" d="M132.529 0.566134C132.697 1.93604 131.839 4.12228 130.47 4.29015C129.1 4.45801 127.74 2.54455 127.571 1.17565C127.403 -0.194256 128.33 -1.81796 129.7 -1.98582C131.068 -2.15369 132.361 -0.802769 132.529 0.566134ZM161.44 7.28775C162.809 7.11988 163.667 4.93363 163.499 3.56373C163.331 2.19483 162.038 0.843911 160.67 1.01178C159.3 1.17964 158.373 2.80334 158.541 4.17324C158.71 5.54215 160.07 7.45561 161.44 7.28775ZM247.576 14.9383C248.679 14.9383 249.574 12.9799 249.574 11.6719C249.574 10.364 248.679 8.94312 247.576 8.94312C246.473 8.94312 245.578 10.364 245.578 11.6719C245.578 12.9799 246.473 14.9383 247.576 14.9383ZM35.3952 22.5047C36.4982 22.5047 37.3933 20.5473 37.3933 19.2384C37.3933 17.9304 36.4982 16.5096 35.3952 16.5096C34.2923 16.5096 33.3972 17.9304 33.3972 19.2384C33.3972 20.5473 34.2923 22.5047 35.3952 22.5047ZM237.086 36.0855C238.189 36.0855 239.084 34.128 239.084 32.8191C239.084 31.5111 238.189 30.0903 237.086 30.0903C235.983 30.0903 235.088 31.5111 235.088 32.8191C235.088 34.128 235.983 36.0855 237.086 36.0855ZM214.108 36.541C215.488 36.541 216.606 38.0388 216.606 39.4187C216.606 40.7986 215.488 42.8639 214.108 42.8639C212.729 42.8639 211.611 40.7986 211.611 39.4187C211.611 38.0388 212.729 36.541 214.108 36.541ZM74.743 115.358C74.743 116.738 73.6251 118.803 72.2454 118.803C70.8658 118.803 69.7478 116.738 69.7478 115.358C69.7478 113.978 70.8658 112.48 72.2454 112.48C73.6251 112.48 74.743 113.978 74.743 115.358ZM144.176 196.74C145.556 196.74 146.674 194.676 146.674 193.296C146.674 191.916 145.556 190.418 144.176 190.418C142.796 190.418 141.678 191.916 141.678 193.296C141.678 194.676 142.796 196.74 144.176 196.74ZM181.884 117.804C180.505 117.804 179.386 115.739 179.386 114.359C179.386 112.979 180.505 111.481 181.884 111.481C183.263 111.481 184.381 112.979 184.381 114.359C184.381 115.739 183.263 117.804 181.884 117.804ZM40.0206 193.742C41.4003 193.742 42.5182 191.678 42.5182 190.298C42.5182 188.918 41.4003 187.42 40.0206 187.42C38.642 187.42 37.523 188.918 37.523 190.298C37.523 191.678 38.642 193.742 40.0206 193.742ZM253.814 189.418C255.194 189.418 256.312 190.916 256.312 192.296C256.312 193.676 255.194 195.74 253.814 195.74C252.436 195.74 251.317 193.676 251.317 192.296C251.317 190.916 252.436 189.418 253.814 189.418ZM105.486 44.6201C106.865 44.6201 107.983 42.5548 107.983 41.1749C107.983 39.795 106.865 38.2972 105.486 38.2972C104.106 38.2972 102.988 39.795 102.988 41.1749C102.988 42.5548 104.106 44.6201 105.486 44.6201ZM50.7832 47.1701C50.7832 48.55 49.6643 50.6153 48.2857 50.6153C46.906 50.6153 45.7881 48.55 45.7881 47.1701C45.7881 45.7902 46.906 44.2924 48.2857 44.2924C49.6643 44.2924 50.7832 45.7902 50.7832 47.1701ZM97.2213 108.758C97.2213 110.067 96.3262 112.025 95.2232 112.025C94.1203 112.025 93.2252 110.067 93.2252 108.758C93.2252 107.45 94.1203 106.029 95.2232 106.029C96.3262 106.029 97.2213 107.45 97.2213 108.758ZM169.152 186.696C169.152 188.004 168.257 189.962 167.154 189.962C166.051 189.962 165.156 188.004 165.156 186.696C165.156 185.388 166.051 183.967 167.154 183.967C168.257 183.967 169.152 185.388 169.152 186.696ZM204.861 111.025C205.965 111.025 206.86 109.068 206.86 107.759C206.86 106.451 205.965 105.03 204.861 105.03C203.759 105.03 202.863 106.451 202.863 107.759C202.863 109.068 203.759 111.025 204.861 111.025ZM64.9965 183.698C64.9965 185.006 64.1024 186.965 62.9984 186.965C61.8955 186.965 61.0004 185.006 61.0004 183.698C61.0004 182.39 61.8955 180.969 62.9984 180.969C64.1024 180.969 64.9965 182.39 64.9965 183.698ZM276.792 182.968C275.689 182.968 274.794 184.389 274.794 185.697C274.794 187.005 275.689 188.963 276.792 188.963C277.896 188.963 278.79 187.005 278.79 185.697C278.79 184.389 277.896 182.968 276.792 182.968ZM130.462 34.5755C130.462 35.8834 129.566 37.8419 128.464 37.8419C127.361 37.8419 126.465 35.8834 126.465 34.5755C126.465 33.2675 127.361 31.8467 128.464 31.8467C129.566 31.8467 130.462 33.2675 130.462 34.5755ZM107.711 87.6111C107.711 88.919 106.816 90.8774 105.713 90.8774C104.61 90.8774 103.715 88.919 103.715 87.6111C103.715 86.3031 104.61 84.8823 105.713 84.8823C106.816 84.8823 107.711 86.3031 107.711 87.6111ZM175.646 165.549C175.646 166.857 176.541 168.815 177.644 168.815C178.747 168.815 179.642 166.857 179.642 165.549C179.642 164.24 178.747 162.82 177.644 162.82C176.541 162.82 175.646 164.24 175.646 165.549ZM213.353 86.6119C213.353 85.3039 214.248 83.8831 215.351 83.8831C216.455 83.8831 217.349 85.3039 217.349 86.6119C217.349 87.9198 216.455 89.8783 215.351 89.8783C214.248 89.8783 213.353 87.9198 213.353 86.6119ZM73.4883 165.817C74.5923 165.817 75.4864 163.859 75.4864 162.551C75.4864 161.243 74.5923 159.822 73.4883 159.822C72.3854 159.822 71.4902 161.243 71.4902 162.551C71.4902 163.859 72.3854 165.817 73.4883 165.817ZM29.875 178.729C29.875 180.037 28.9809 181.995 27.877 181.995C26.774 181.995 25.8789 180.037 25.8789 178.729C25.8789 177.421 26.774 176 27.877 176C28.9809 176 29.875 177.421 29.875 178.729ZM17.8151 118.344C17.8151 119.652 18.7092 121.611 19.8131 121.611C20.9161 121.611 21.8112 119.652 21.8112 118.344C21.8112 117.036 20.9161 115.615 19.8131 115.615C18.7092 115.615 17.8151 117.036 17.8151 118.344ZM140.951 13.4283C140.951 14.7363 140.056 16.6947 138.953 16.6947C137.85 16.6947 136.955 14.7363 136.955 13.4283C136.955 12.1204 137.85 10.6995 138.953 10.6995C140.056 10.6995 140.951 12.1204 140.951 13.4283ZM249.157 63.037C250.452 62.5653 250.798 60.2422 250.326 58.9452C249.854 57.6493 248.29 56.6241 246.995 57.0957C245.698 57.5673 245.16 59.3579 245.632 60.6549C246.104 61.9508 247.861 63.5086 249.157 63.037ZM107.293 138.976C105.998 139.448 104.24 137.89 103.769 136.594C103.297 135.297 103.835 133.506 105.131 133.035C106.428 132.563 107.991 133.588 108.462 134.885C108.935 136.181 108.59 138.504 107.293 138.976ZM177.062 210.973C175.765 211.444 175.228 213.235 175.699 214.532C176.171 215.827 177.928 217.385 179.224 216.914C180.52 216.442 180.865 214.118 180.393 212.823C179.921 211.526 178.358 210.5 177.062 210.973ZM218.101 133.885C218.573 135.182 218.228 137.505 216.932 137.977C215.637 138.449 213.879 136.891 213.408 135.595C212.936 134.298 213.474 132.507 214.769 132.036C216.066 131.564 217.63 132.589 218.101 133.885ZM71.5444 211.534C72.0159 212.83 73.7732 214.387 75.069 213.917C76.3657 213.444 76.7094 211.121 76.2379 209.825C75.7663 208.528 74.2028 207.503 72.9071 207.975C71.6103 208.446 71.0728 210.237 71.5444 211.534ZM141.703 60.7016C142.175 61.9986 141.83 64.3217 140.534 64.7934C139.238 65.265 137.481 63.7072 137.009 62.4103C136.538 61.1143 137.076 59.3237 138.372 58.8521C139.668 58.3805 141.231 59.4057 141.703 60.7016ZM264.475 71.7444C264.643 73.1143 266.005 75.0278 267.374 74.8589C268.743 74.691 269.601 72.5048 269.433 71.1359C269.265 69.767 267.972 68.4151 266.603 68.5829C265.235 68.7518 264.308 70.3745 264.475 71.7444ZM125.51 150.798C124.142 150.967 122.78 149.053 122.612 147.684C122.444 146.314 123.372 144.691 124.74 144.522C126.109 144.354 127.402 145.706 127.57 147.075C127.738 148.444 126.88 150.63 125.51 150.798ZM232.251 146.684C232.418 148.054 233.78 149.968 235.15 149.799C236.518 149.631 237.377 147.445 237.209 146.076C237.04 144.707 235.748 143.355 234.379 143.523C233.01 143.692 232.083 145.314 232.251 146.684ZM157.98 70.3399C159.35 70.171 160.643 71.522 160.811 72.8919C160.979 74.2608 160.12 76.447 158.751 76.6159C157.382 76.7837 156.02 74.8693 155.853 73.5004C155.685 72.1315 156.612 70.5078 157.98 70.3399ZM237.838 80.4718C239.208 80.3039 240.065 78.1177 239.898 76.7478C239.729 75.3789 238.436 74.028 237.068 74.1958C235.698 74.3637 234.771 75.9874 234.94 77.3563C235.108 78.7262 236.468 80.6397 237.838 80.4718ZM95.2042 150.135C96.5738 149.967 97.8666 151.318 98.0344 152.687C98.2023 154.057 97.3441 156.243 95.9744 156.411C94.6057 156.579 93.244 154.665 93.0762 153.295C92.9084 151.926 93.8355 150.303 95.2042 150.135ZM207.673 151.688C207.841 153.058 206.982 155.244 205.614 155.412C204.244 155.58 202.883 153.666 202.715 152.296C202.547 150.927 203.474 149.304 204.843 149.136C206.212 148.968 207.505 150.319 207.673 151.688ZM129.215 82.2277C130.585 82.0598 131.442 79.8736 131.275 78.5037C131.106 77.1348 129.814 75.7838 128.445 75.9517C127.075 76.1196 126.148 77.7433 126.317 79.1132C126.485 80.4821 127.846 82.3955 129.215 82.2277ZM208.928 73.7502C209.095 75.1201 208.238 77.3063 206.868 77.4742C205.498 77.6421 204.137 75.7286 203.97 74.3587C203.801 72.9898 204.728 71.3661 206.098 71.1982C207.466 71.0304 208.759 72.3813 208.928 73.7502ZM65.0048 153.413C66.3745 153.245 67.2317 151.059 67.0638 149.689C66.896 148.32 65.6032 146.969 64.2346 147.137C62.8649 147.305 61.9378 148.929 62.1066 150.298C62.2744 151.668 63.6351 153.581 65.0048 153.413ZM13.3891 105.482C13.556 106.852 12.6988 109.038 11.3291 109.206C9.96045 109.374 8.59876 107.46 8.43093 106.092C8.26209 104.722 9.18919 103.098 10.5589 102.93C11.9276 102.762 13.2203 104.113 13.3891 105.482ZM275.9 152.297C276.068 153.666 277.429 155.58 278.798 155.412C280.168 155.243 281.026 153.057 280.858 151.688C280.689 150.319 279.396 148.967 278.028 149.135C276.659 149.304 275.732 150.928 275.9 152.297ZM174.644 152.414C176.012 152.246 176.87 150.06 176.703 148.69C176.535 147.321 175.242 145.97 173.873 146.138C172.504 146.306 171.577 147.93 171.745 149.299C171.913 150.669 173.274 152.582 174.644 152.414ZM100.305 75.5061C100.472 76.876 99.6149 79.0622 98.2452 79.2301C96.8755 79.3979 95.5149 77.4845 95.347 76.1156C95.1782 74.7457 96.1053 73.122 97.475 72.9541C98.8436 72.7862 100.136 74.1372 100.305 75.5061ZM41.045 85.2253C42.4137 85.0574 43.2719 82.8712 43.1041 81.5013C42.9362 80.1324 41.6435 78.7814 40.2748 78.9493C38.9051 79.1172 37.978 80.7409 38.1468 82.1108C38.3147 83.4797 39.6754 85.3932 41.045 85.2253ZM199.874 51.4953C198.506 51.6632 197.144 49.7497 196.976 48.3798C196.808 47.0109 197.735 45.3872 199.104 45.2183C200.473 45.0505 201.765 46.4024 201.934 47.7713C202.102 49.1402 201.244 51.3265 199.874 51.4953ZM58.0116 127.434C59.3812 127.266 60.2384 125.08 60.0706 123.71C59.9027 122.341 58.61 120.99 57.2413 121.158C55.8716 121.326 54.9445 122.95 55.1134 124.319C55.2812 125.689 56.6419 127.602 58.0116 127.434ZM271.034 123.156C272.404 122.989 273.697 124.34 273.865 125.708C274.033 127.078 273.174 129.265 271.805 129.432C270.436 129.6 269.075 127.687 268.906 126.317C268.739 124.948 269.666 123.324 271.034 123.156ZM129.942 205.372C131.312 205.203 132.169 203.018 132.002 201.648C131.833 200.278 130.541 198.928 129.172 199.096C127.802 199.264 126.875 200.887 127.044 202.257C127.212 203.626 128.572 205.54 129.942 205.372ZM167.65 126.435C166.281 126.603 164.92 124.69 164.752 123.32C164.584 121.951 165.511 120.327 166.88 120.158C168.248 119.99 169.541 121.342 169.709 122.711C169.878 124.08 169.019 126.266 167.65 126.435ZM27.8464 198.65C27.6785 197.281 26.3858 195.93 25.0161 196.098C23.6474 196.265 22.7203 197.889 22.8892 199.259C23.057 200.628 24.4177 202.542 25.7874 202.374C27.156 202.206 28.0142 200.019 27.8464 198.65ZM241.64 200.648C241.808 202.018 240.95 204.204 239.581 204.372C238.211 204.54 236.851 202.627 236.683 201.258C236.514 199.888 237.441 198.264 238.811 198.097C240.179 197.929 241.472 199.279 241.64 200.648ZM88.3534 50.1362C88.5212 51.5061 89.8829 53.4196 91.2516 53.2507C92.6213 53.0828 93.4794 50.8966 93.3116 49.5277C93.1427 48.1578 91.85 46.8069 90.4813 46.9747C89.1126 47.1426 88.1855 48.7663 88.3534 50.1362ZM34.0514 59.2459C32.6827 59.4148 31.321 57.5013 31.1532 56.1314C30.9854 54.7615 31.9125 53.1378 33.2811 52.9699C34.6498 52.8021 35.9426 54.153 36.1104 55.5229C36.2792 56.8918 35.4201 59.078 34.0514 59.2459ZM218.859 22.4533C219.764 21.4121 218.939 19.2129 217.898 18.3086C216.857 17.4033 214.992 17.2635 214.087 18.3046C213.182 19.3468 213.58 21.1733 214.621 22.0786C215.662 22.9839 217.954 23.4945 218.859 22.4533ZM76.0346 94.2477C77.0756 95.152 77.9008 97.3513 76.9956 98.3924C76.0905 99.4336 73.7987 98.923 72.7577 98.0177C71.7167 97.1124 71.3191 95.2859 72.2242 94.2438C73.1294 93.2026 74.9936 93.3425 76.0346 94.2477ZM17.1676 8.87257C18.0728 7.83141 17.2476 5.63217 16.2066 4.72789C15.1656 3.82262 13.3014 3.68273 12.3962 4.7239C11.4911 5.76606 11.8887 7.5926 12.9297 8.49787C13.9707 9.40315 16.2625 9.91374 17.1676 8.87257ZM147.965 172.185C149.006 173.09 149.831 175.288 148.926 176.33C148.021 177.371 145.729 176.86 144.688 175.955C143.647 175.05 143.25 173.223 144.155 172.182C145.06 171.141 146.924 171.28 147.965 172.185ZM181.863 93.2448C180.958 94.2859 181.356 96.1135 182.397 97.0187C183.438 97.924 185.729 98.4346 186.634 97.3934C187.54 96.3523 186.715 94.153 185.674 93.2477C184.633 92.3435 182.768 92.2036 181.863 93.2448ZM40.5336 172.957C39.4926 172.053 39.095 170.225 40.0001 169.184C40.9053 168.143 42.7695 168.283 43.8105 169.187C44.8515 170.092 45.6767 172.29 44.7705 173.333C43.8664 174.373 41.5746 173.863 40.5336 172.957ZM28.3827 149.729C27.4775 150.771 27.8751 152.598 28.9161 153.502C29.9571 154.409 32.2489 154.918 33.1541 153.877C34.0592 152.836 33.234 150.638 32.193 149.732C31.152 148.827 29.2878 148.688 28.3827 149.729ZM254.327 174.955C253.286 174.051 252.889 172.223 253.794 171.182C254.699 170.141 256.563 170.281 257.604 171.185C258.645 172.091 259.47 174.289 258.564 175.331C257.66 176.371 255.368 175.862 254.327 174.955ZM110.236 24.2097C111.141 23.1685 110.316 20.9693 109.275 20.064C108.234 19.1587 106.37 19.0198 105.465 20.061C104.56 21.1022 104.957 22.9297 105.998 23.835C107.039 24.7403 109.331 25.2508 110.236 24.2097ZM52.0748 26.0592C53.1158 26.9645 53.941 29.1637 53.0359 30.2049C52.1307 31.246 49.839 30.7355 48.798 29.8302C47.757 28.9249 47.3593 27.0974 48.2645 26.0562C49.1696 25.015 51.0338 25.1539 52.0748 26.0592ZM192.457 33.2688C194.096 33.4986 195.77 31.2315 196 29.5928C196.23 27.9531 195.152 25.9857 193.513 25.7548C191.874 25.525 190.294 27.1188 190.064 28.7584C189.835 30.3971 190.818 33.039 192.457 33.2688ZM48.2008 104.698C48.4316 103.058 50.0101 101.464 51.6495 101.694C53.2889 101.925 54.3679 103.892 54.1371 105.532C53.9063 107.171 52.2329 109.438 50.5935 109.208C48.9551 108.978 47.9711 106.336 48.2008 104.698ZM265.443 103.692C263.804 103.463 262.225 105.056 261.994 106.696C261.765 108.335 262.749 110.977 264.387 111.206C266.027 111.436 267.7 109.169 267.931 107.53C268.161 105.891 267.083 103.923 265.443 103.692ZM122.524 187.146C120.885 186.915 119.902 184.275 120.132 182.635C120.362 180.995 121.941 179.402 123.58 179.631C125.22 179.862 126.298 181.83 126.067 183.469C125.837 185.109 124.164 187.376 122.524 187.146ZM163.776 104.533C164.005 102.893 162.927 100.925 161.288 100.695C159.65 100.465 158.07 102.058 157.84 103.698C157.61 105.338 158.594 107.979 160.233 108.209C161.871 108.439 163.546 106.172 163.776 104.533ZM8.91228 186.026C9.14306 184.386 10.7215 182.792 12.361 183.022C14.0004 183.252 15.0783 185.22 14.8486 186.86C14.6178 188.499 12.9444 190.767 11.305 190.537C9.66555 190.305 8.68151 187.664 8.91228 186.026ZM229.771 181.636C229.54 183.275 230.524 185.915 232.163 186.147C233.803 186.377 235.476 184.11 235.706 182.47C235.937 180.83 234.858 178.863 233.219 178.632C231.58 178.402 230 179.996 229.771 181.636ZM87.3769 31.3482C87.1471 32.9878 85.4737 35.255 83.8343 35.0252C82.1949 34.7944 81.2119 32.1535 81.4416 30.5138C81.6714 28.8751 83.2509 27.2814 84.8903 27.5112C86.5297 27.7411 87.6077 29.7095 87.3769 31.3482ZM26.6342 41.0204C28.2736 41.2502 29.947 38.983 30.1767 37.3434C30.4075 35.7047 29.3286 33.7363 27.6901 33.5064C26.0507 33.2766 24.4712 34.8703 24.2415 36.509C24.0107 38.1487 24.9947 40.7896 26.6342 41.0204ZM182.664 36.353C183.374 37.535 183.48 39.8821 182.297 40.5926C181.114 41.303 179.092 40.1089 178.383 38.9269C177.671 37.7438 177.858 35.8833 179.041 35.1729C180.223 34.4625 181.953 35.1709 182.664 36.353ZM36.5191 114.866C37.2294 116.048 39.2515 117.242 40.4333 116.531C41.6162 115.822 41.5113 113.475 40.801 112.293C40.0907 111.11 38.3603 110.401 37.1775 111.112C35.9956 111.823 35.8088 113.682 36.5191 114.866ZM254.227 118.53C253.045 119.24 251.023 118.046 250.313 116.864C249.602 115.681 249.789 113.821 250.971 113.11C252.154 112.4 253.884 113.108 254.595 114.291C255.305 115.473 255.41 117.82 254.227 118.53ZM112.364 194.469C113.547 193.759 113.441 191.412 112.731 190.23C112.021 189.047 110.29 188.338 109.109 189.05C107.926 189.76 107.739 191.62 108.45 192.803C109.159 193.986 111.182 195.18 112.364 194.469ZM150.44 111.293C151.15 112.475 151.255 114.822 150.072 115.532C148.89 116.243 146.867 115.049 146.158 113.867C145.448 112.684 145.634 110.823 146.816 110.113C147.998 109.402 149.728 110.111 150.44 111.293ZM7.20904 213.704C8.3919 212.994 8.287 210.647 7.57669 209.465C6.86537 208.281 5.13504 207.573 3.95318 208.284C2.77132 208.995 2.5845 210.854 3.29482 212.037C4.00413 213.221 6.02718 214.415 7.20904 213.704ZM218.088 191.804C217.377 190.621 217.564 188.761 218.747 188.051C219.929 187.339 221.659 188.048 222.369 189.231C223.08 190.413 223.185 192.76 222.003 193.47C220.821 194.181 218.798 192.986 218.088 191.804ZM16.4741 48.3441C17.6559 47.6337 17.551 45.2866 16.8407 44.1045C16.1304 42.9225 14.4001 42.2131 13.2182 42.9245C12.0353 43.6349 11.8485 45.4954 12.5588 46.6775C13.2692 47.8605 15.2912 49.0546 16.4741 48.3441ZM197.079 8.83281C198.12 9.73808 198.945 11.9373 198.04 12.9785C197.135 14.0197 194.843 13.5091 193.802 12.6038C192.761 11.6985 192.363 9.87098 193.269 8.82981C194.174 7.78865 196.038 7.92753 197.079 8.83281ZM56.1769 88.9176C57.0821 87.8765 56.2569 85.6772 55.2159 84.7719C54.1749 83.8667 52.3107 83.7278 51.4055 84.769C50.5004 85.8101 50.898 87.6376 51.939 88.5429C52.98 89.4482 55.2718 89.9588 56.1769 88.9176ZM28.193 74.7324C29.234 75.6377 30.0592 77.8369 29.1541 78.8781C28.2489 79.9192 25.9571 79.4086 24.9161 78.5034C23.8751 77.5981 23.4775 75.7705 24.3827 74.7294C25.2878 73.6882 27.152 73.8271 28.193 74.7324ZM265.199 86.7674C264.294 87.8086 264.692 89.6361 265.733 90.5414C266.774 91.4467 269.066 91.9573 269.971 90.9161C270.876 89.875 270.051 87.6757 269.01 86.7704C267.969 85.8652 266.104 85.7263 265.199 86.7674ZM127.146 162.71C128.187 163.615 129.013 165.813 128.107 166.855C127.202 167.896 124.911 167.385 123.87 166.48C122.829 165.576 122.431 163.748 123.336 162.707C124.241 161.666 126.105 161.805 127.146 162.71ZM164.855 83.7729C163.814 82.8676 161.95 82.7287 161.044 83.7699C160.139 84.811 160.537 86.6385 161.578 87.5438C162.619 88.4491 164.911 88.9597 165.815 87.9185C166.721 86.8774 165.896 84.6781 164.855 83.7729ZM9.91614 167.502C8.87515 166.598 8.47753 164.77 9.38266 163.729C10.2878 162.688 12.152 162.828 13.193 163.732C14.234 164.637 15.0592 166.836 14.1531 167.877C13.2489 168.918 10.9571 168.408 9.91614 167.502ZM237.746 165.855C238.651 164.814 237.827 162.616 236.786 161.711C235.745 160.805 233.879 160.667 232.975 161.708C232.069 162.749 232.467 164.576 233.508 165.481C234.549 166.386 236.841 166.897 237.746 165.855ZM88.4562 10.5897C89.4972 11.494 90.3224 13.6932 89.4172 14.7344C88.5121 15.7755 86.2203 15.265 85.1793 14.3597C84.1383 13.4544 83.7407 11.6279 84.6459 10.5867C85.551 9.54554 87.4152 9.68443 88.4562 10.5897ZM44.1416 10.8704C45.0467 9.82928 44.2215 7.63004 43.1805 6.72577C42.1395 5.82049 40.2753 5.6816 39.3702 6.72277C38.4651 7.76393 38.8627 9.59047 39.9037 10.4957C40.9447 11.401 43.2365 11.9116 44.1416 10.8704ZM271.727 54.5702C270.686 53.665 270.288 51.8374 271.193 50.7963C272.099 49.7551 273.963 49.894 275.004 50.7993C276.045 51.7045 276.87 53.9038 275.965 54.945C275.06 55.9861 272.768 55.4755 271.727 54.5702ZM129.33 126.735C128.425 127.777 128.823 129.604 129.864 130.509C130.905 131.415 133.197 131.925 134.102 130.884C135.007 129.843 134.182 127.644 133.141 126.738C132.1 125.833 130.236 125.694 129.33 126.735ZM205.071 204.676C206.112 205.582 206.937 207.78 206.032 208.821C205.127 209.862 202.835 209.352 201.794 208.446C200.753 207.542 200.356 205.715 201.261 204.673C202.166 203.632 204.03 203.771 205.071 204.676ZM242.779 125.739C241.738 124.834 239.874 124.695 238.969 125.736C238.064 126.777 238.462 128.605 239.503 129.51C240.544 130.415 242.835 130.926 243.74 129.885C244.646 128.844 243.82 126.644 242.779 125.739ZM97.6396 205.448C96.5986 204.544 96.201 202.717 97.1061 201.675C98.0112 200.634 99.8754 200.774 100.916 201.678C101.957 202.584 102.783 204.782 101.877 205.823C100.972 206.864 98.6806 206.355 97.6396 205.448ZM162.571 52.5528C161.666 53.5939 162.063 55.4215 163.104 56.3257C164.145 57.232 166.437 57.7426 167.342 56.7004C168.247 55.6593 167.422 53.461 166.381 52.5558C165.34 51.6505 163.476 51.5116 162.571 52.5528ZM266.242 38.6261C266.713 39.9231 266.369 42.2452 265.073 42.7178C263.776 43.1895 262.02 41.6317 261.548 40.3348C261.076 39.0388 261.614 37.2472 262.91 36.7756C264.207 36.304 265.77 37.3292 266.242 38.6261ZM123.21 118.657C124.506 118.184 124.85 115.862 124.379 114.565C123.907 113.268 122.344 112.243 121.047 112.715C119.751 113.186 119.213 114.978 119.685 116.274C120.157 117.571 121.913 119.129 123.21 118.657ZM191.615 194.212C191.144 192.915 191.682 191.125 192.978 190.653C194.274 190.18 195.837 191.207 196.309 192.503C196.781 193.798 196.437 196.123 195.141 196.594C193.844 197.066 192.087 195.508 191.615 194.212ZM232.848 117.658C234.144 117.185 234.49 114.863 234.017 113.566C233.546 112.269 231.982 111.244 230.686 111.716C229.39 112.187 228.852 113.979 229.324 115.275C229.795 116.572 231.552 118.129 232.848 117.658ZM87.4604 191.215C86.9889 189.918 87.5274 188.127 88.8231 187.655C90.1189 187.183 91.6824 188.209 92.1539 189.506C92.6264 190.801 92.2818 193.125 90.985 193.597C89.6893 194.068 87.932 192.51 87.4604 191.215ZM156.45 44.4742C157.746 44.0016 158.091 41.6795 157.619 40.3825C157.148 39.0856 155.584 38.0604 154.287 38.532C152.992 39.0036 152.453 40.7942 152.926 42.0912C153.397 43.3881 155.154 44.9459 156.45 44.4742ZM275.233 18.6421C275.705 19.9391 275.36 22.2612 274.064 22.7339C272.767 23.2055 271.011 21.6477 270.54 20.3508C270.067 19.0548 270.606 17.2633 271.901 16.7916C273.198 16.32 274.762 17.3452 275.233 18.6421ZM130.039 92.731C128.743 93.2026 128.204 94.9941 128.676 96.2901C129.148 97.5861 130.905 99.1448 132.202 98.6732C133.497 98.2006 133.842 95.8774 133.37 94.5815C132.898 93.2845 131.334 92.2593 130.039 92.731ZM204.131 176.611C202.835 177.081 201.078 175.525 200.607 174.228C200.134 172.931 200.673 171.14 201.969 170.669C203.265 170.197 204.829 171.222 205.3 172.519C205.772 173.815 205.428 176.138 204.131 176.611ZM239.677 91.7318C238.381 92.2034 237.843 93.9949 238.315 95.2909C238.786 96.5869 240.544 98.1456 241.839 97.674C243.135 97.2014 243.481 94.8782 243.008 93.5823C242.537 92.2853 240.973 91.2601 239.677 91.7318ZM96.4518 171.231C95.9802 169.934 96.5177 168.143 97.8144 167.671C99.1102 167.199 100.674 168.225 101.145 169.522C101.618 170.817 101.272 173.141 99.9763 173.613C98.6806 174.084 96.9233 172.527 96.4518 171.231ZM161.917 22.1074C162.388 23.4033 164.145 24.9611 165.441 24.4905C166.738 24.0178 167.082 21.6947 166.61 20.3987C166.139 19.1018 164.575 18.0766 163.279 18.5482C161.983 19.0198 161.444 20.8104 161.917 22.1074ZM236.758 49.5409C235.488 49.0023 235.357 47.1098 235.897 45.8399C236.436 44.5699 237.976 44.0733 239.246 44.6128C240.515 45.1524 241.034 46.5223 240.495 47.7923C239.956 49.0623 238.028 50.0805 236.758 49.5409ZM94.895 125.48C96.1647 126.02 98.0929 125.002 98.6323 123.732C99.1708 122.462 98.6523 121.091 97.3826 120.552C96.1128 120.013 94.5733 120.509 94.0338 121.779C93.4953 123.049 93.6252 124.941 94.895 125.48ZM10.7965 27.374C10.2571 28.644 8.32893 29.6622 7.05915 29.1226C5.78938 28.5831 5.65951 26.6916 6.19799 25.4216C6.73747 24.1516 8.27698 23.655 9.54675 24.1946C10.8165 24.7332 11.335 26.1041 10.7965 27.374ZM165.964 199.716C165.425 200.986 165.556 202.878 166.826 203.417C168.095 203.957 170.024 202.938 170.563 201.668C171.101 200.399 170.583 199.029 169.313 198.489C168.043 197.949 166.504 198.446 165.964 199.716ZM204.533 124.481C203.264 123.942 203.134 122.05 203.672 120.78C204.212 119.51 205.751 119.013 207.021 119.553C208.291 120.092 208.809 121.462 208.271 122.732C207.731 124.002 205.803 125.02 204.533 124.481ZM61.8092 196.718C61.2707 197.988 61.4006 199.881 62.6704 200.419C63.9401 200.959 65.8683 199.941 66.4078 198.671C66.9462 197.402 66.4277 196.031 65.158 195.491C63.8882 194.952 62.3487 195.448 61.8092 196.718ZM276.464 202.418C275.194 201.879 275.064 199.987 275.603 198.717C276.142 197.447 277.682 196.95 278.952 197.49C280.221 198.029 280.74 199.4 280.201 200.669C279.662 201.939 277.734 202.957 276.464 202.418ZM130.623 46.3692C129.353 45.8297 127.813 46.3263 127.274 47.5962C126.735 48.8662 126.866 50.7587 128.135 51.2973C129.405 51.8358 131.333 50.8187 131.872 49.5487C132.411 48.2787 131.893 46.9078 130.623 46.3692ZM181.702 67.846C180.433 67.3074 180.302 65.415 180.841 64.145C181.381 62.875 182.92 62.3784 184.19 62.918C185.46 63.4575 185.978 64.8274 185.44 66.0974C184.9 67.3674 182.972 68.3856 181.702 67.846ZM38.9781 140.084C38.4387 141.354 38.5695 143.247 39.8393 143.785C41.1091 144.325 43.0372 143.307 43.5767 142.037C44.1152 140.767 43.5967 139.397 42.3269 138.857C41.0571 138.318 39.5176 138.814 38.9781 140.084ZM11.8796 127.806C11.3401 129.076 9.41198 130.094 8.14221 129.554C6.87243 129.015 6.74256 127.123 7.28104 125.853C7.82052 124.583 9.36003 124.087 10.6298 124.626C11.8996 125.165 12.4181 126.536 11.8796 127.806ZM252.772 142.083C252.232 143.352 252.363 145.245 253.633 145.784C254.903 146.323 256.831 145.305 257.37 144.035C257.909 142.765 257.39 141.395 256.121 140.855C254.851 140.316 253.311 140.813 252.772 142.083ZM149.478 142.786C148.208 142.247 148.077 140.355 148.616 139.085C149.156 137.815 150.695 137.318 151.965 137.858C153.235 138.397 153.754 139.767 153.215 141.037C152.676 142.307 150.747 143.326 149.478 142.786ZM73.0795 69.6025C74.3493 70.1421 76.2774 69.1239 76.8169 67.8539C77.3554 66.5839 76.8369 65.213 75.5671 64.6745C74.2973 64.1349 72.7578 64.6315 72.2183 65.9015C71.6799 67.1714 71.8097 69.0629 73.0795 69.6025ZM18.0402 64.1437C16.7705 63.6051 16.6396 61.7126 17.1791 60.4426C17.7185 59.1726 19.2581 58.676 20.5278 59.2156C21.7976 59.7552 22.3161 61.1251 21.7776 62.3951C21.2381 63.665 19.31 64.6832 18.0402 64.1437ZM222.663 7.89416C223.932 8.43373 225.861 7.41554 226.4 6.14556C226.939 4.87558 226.42 3.50468 225.15 2.96611C223.881 2.42654 222.341 2.92315 221.802 4.19313C221.263 5.46311 221.393 7.35459 222.663 7.89416ZM84.5371 82.0847C83.9976 83.3547 82.0694 84.3729 80.7997 83.8333C79.5299 83.2937 79.4 81.4022 79.9385 80.1323C80.478 78.8623 82.0175 78.3657 83.2873 78.9053C84.557 79.4438 85.0755 80.8147 84.5371 82.0847ZM155.218 156.843C153.948 156.303 152.408 156.801 151.869 158.07C151.33 159.341 151.461 161.232 152.73 161.771C154 162.309 155.928 161.292 156.467 160.022C157.006 158.752 156.488 157.382 155.218 156.843ZM194.175 81.0855C193.636 82.3555 191.708 83.3737 190.438 82.8341C189.169 82.2945 189.038 80.403 189.577 79.1331C190.116 77.8631 191.656 77.3665 192.926 77.9061C194.196 78.4446 194.714 79.8155 194.175 81.0855ZM276.04 103.144C277.31 103.683 279.238 102.665 279.777 101.395C280.316 100.125 279.798 98.7542 278.528 98.2156C277.258 97.676 275.718 98.1726 275.179 99.4426C274.64 100.713 274.77 102.604 276.04 103.144ZM51.0632 153.845C52.3329 154.384 52.8514 155.755 52.312 157.025C51.7725 158.295 49.8453 159.312 48.5756 158.773C47.3058 158.235 47.1749 156.342 47.7134 155.072C48.2529 153.802 49.7934 153.306 51.0632 153.845ZM16.8785 144.542C18.1482 145.082 20.0764 144.064 20.6149 142.794C21.1543 141.524 20.6358 140.153 19.3661 139.614C18.0963 139.075 16.5558 139.571 16.0173 140.841C15.4778 142.111 15.6087 144.003 16.8785 144.542ZM266.105 159.023C265.567 160.293 263.639 161.31 262.369 160.772C261.099 160.233 260.968 158.341 261.508 157.071C262.046 155.801 263.587 155.304 264.857 155.844C266.126 156.382 266.645 157.753 266.105 159.023ZM114.04 9.65055C115.31 10.1901 117.238 9.17194 117.777 7.90195C118.316 6.63197 117.797 5.26107 116.528 4.7225C115.258 4.18294 113.718 4.67954 113.179 5.94952C112.64 7.2195 112.77 9.11098 114.04 9.65055ZM60.5763 13.8972C60.0378 15.1671 58.1097 16.1853 56.8399 15.6457C55.5701 15.1062 55.4392 13.2147 55.9787 11.9447C56.5172 10.6747 58.0577 10.1781 59.3275 10.7177C60.5973 11.2563 61.1158 12.6272 60.5763 13.8972ZM220.665 62.8501C221.934 63.3897 223.863 62.3715 224.402 61.1015C224.941 59.8315 224.422 58.4606 223.152 57.9221C221.882 57.3825 220.343 57.8791 219.803 59.1491C219.265 60.4191 219.395 62.3105 220.665 62.8501ZM82.539 137.041C81.9995 138.311 80.0714 139.329 78.8016 138.789C77.5318 138.25 77.4019 136.358 77.9404 135.088C78.4799 133.818 80.0194 133.322 81.2892 133.861C82.559 134.4 83.0775 135.771 82.539 137.041ZM25.1258 94.5825C26.3956 95.122 28.3237 94.1039 28.8632 92.8339C29.4017 91.5639 28.8832 90.193 27.6134 89.6544C26.3436 89.1149 24.8041 89.6115 24.2646 90.8814C23.7262 92.1514 23.856 94.0429 25.1258 94.5825ZM9.77718 77.3951C9.2377 78.665 7.30956 79.6832 6.03979 79.1437C4.77002 78.6041 4.64014 76.7126 5.17862 75.4426C5.7181 74.1726 7.25761 73.676 8.52739 74.2156C9.79716 74.7542 10.3157 76.1251 9.77718 77.3951ZM153.22 211.799C151.95 211.26 150.41 211.756 149.871 213.026C149.332 214.296 149.463 216.189 150.732 216.727C152.002 217.266 153.93 216.248 154.469 214.979C155.008 213.708 154.49 212.338 153.22 211.799ZM192.177 136.041C191.638 137.311 189.71 138.33 188.44 137.79C187.171 137.25 187.04 135.359 187.579 134.089C188.118 132.819 189.658 132.322 190.928 132.862C192.198 133.401 192.716 134.771 192.177 136.041ZM46.5773 213.729C47.8471 214.268 49.7752 213.251 50.3137 211.981C50.8532 210.711 50.3347 209.34 49.0649 208.801C47.7951 208.262 46.2546 208.758 45.7161 210.028C45.1767 211.298 45.3075 213.191 46.5773 213.729ZM264.107 213.979C263.569 215.249 261.641 216.266 260.371 215.728C259.101 215.189 258.97 213.297 259.51 212.027C260.048 210.757 261.589 210.26 262.858 210.8C264.128 211.338 264.647 212.709 264.107 213.979ZM112.042 64.6065C113.312 65.1461 115.24 64.1279 115.779 62.8579C116.318 61.5879 115.799 60.217 114.53 59.6785C113.26 59.1389 111.72 59.6355 111.181 60.9055C110.642 62.1755 110.772 64.0669 112.042 64.6065ZM58.5782 68.8531C58.0397 70.1231 56.1116 71.1413 54.8418 70.6017C53.572 70.0621 53.4412 68.1706 53.9807 66.9007C54.5191 65.6307 56.0596 65.1341 57.3294 65.6737C58.5992 66.2122 59.1177 67.5831 58.5782 68.8531Z" fill="#010101"/></g></g></g></g><g id="Dog"><path id="Fill 1_3" fill-rule="evenodd" clip-rule="evenodd" d="M1585 1095.48C1611.26 1086.91 1665.98 1081.44 1692.31 1169.71C1692.31 1169.71 1766.9 1169.37 1809.13 1175.18C1858.43 1181.97 1859.69 1204.43 1879.95 1215.14C1927.45 1240.27 1962.3 1243.04 1962.47 1248.53C1962.98 1265.55 1892.27 1244.91 1883.6 1242.02C1883.6 1242.02 1896.88 1278.72 1878.86 1362.14C1878.21 1365.12 1875.48 1367.19 1872.44 1366.99L1863.7 1366.39C1860.48 1366.17 1857.99 1363.49 1857.99 1360.26V1313.75C1857.99 1311.4 1856.02 1309.54 1853.68 1309.67L1853.54 1309.68C1851.47 1309.79 1849.82 1311.43 1849.69 1313.5L1846.7 1360.7C1846.49 1363.93 1843.82 1366.45 1840.58 1366.45H1833.85C1830.56 1366.45 1827.86 1363.84 1827.73 1360.55L1824.82 1286.53C1824.82 1286.53 1721.74 1311.22 1680.06 1309.88L1673.88 1367.6C1673.56 1370.57 1671.16 1372.88 1668.19 1373.08L1665.03 1373.29C1662.06 1373.49 1659.37 1371.52 1658.66 1368.62L1646.35 1318.13C1645.88 1316.21 1644.11 1314.9 1642.14 1315.01L1641.54 1315.05C1639.47 1315.17 1637.83 1316.82 1637.7 1318.88L1634.66 1367.55C1634.48 1370.54 1632.16 1372.96 1629.19 1373.28L1622.99 1373.93C1619.79 1374.27 1616.87 1372.07 1616.31 1368.9L1588.18 1210.2C1588.18 1210.2 1524.99 1161.86 1555.59 1117.12C1562.65 1106.8 1573.13 1099.36 1585 1095.48" fill="#9B7368"/><path id="Fill 4_3" fill-rule="evenodd" clip-rule="evenodd" d="M1739.72 1253.5C1738.66 1243.74 1727.74 1238.47 1719.31 1243.46C1708.02 1250.15 1694.39 1262.01 1713.45 1273.36C1732.68 1284.82 1741.28 1267.82 1739.72 1253.5" fill="#F7D3BB"/><path id="Fill 6_3" fill-rule="evenodd" clip-rule="evenodd" d="M1616.11 1114.66C1615.09 1119.16 1611.9 1122.27 1608.99 1121.61C1606.07 1120.94 1604.53 1116.76 1605.55 1112.27C1606.57 1107.77 1609.76 1104.66 1612.67 1105.32C1615.59 1105.98 1617.13 1110.17 1616.11 1114.66" fill="#010101"/><path id="Fill 8_2" fill-rule="evenodd" clip-rule="evenodd" d="M1587.76 1134.47C1587.35 1133.72 1586.4 1133.44 1585.65 1133.85C1585.59 1133.88 1580.22 1136.75 1575.12 1135C1572.18 1133.99 1569.86 1131.59 1568.23 1127.86L1567.95 1127.21L1575.49 1118.84C1576.4 1117.82 1575.82 1116.2 1574.47 1115.99L1565.12 1114.55C1563.87 1114.35 1562.84 1115.54 1563.22 1116.75L1566.23 1126.62L1565.54 1127.56C1565.47 1127.66 1558.23 1137.39 1548.06 1133.47C1547.27 1133.16 1546.36 1133.56 1546.05 1134.37C1545.74 1135.17 1546.14 1136.07 1546.94 1136.38C1556.2 1139.95 1563.37 1134.34 1566.44 1131.24C1568.36 1134.61 1570.93 1136.86 1574.11 1137.96C1575.65 1138.49 1577.19 1138.69 1578.65 1138.69C1583.21 1138.69 1586.93 1136.7 1587.14 1136.59C1587.89 1136.18 1588.17 1135.23 1587.76 1134.47" fill="#010101"/><path id="Fill 10_2" fill-rule="evenodd" clip-rule="evenodd" d="M1640.97 1196.1C1653.63 1213.32 1671.98 1153.84 1677.63 1134C1669.54 1119.62 1660.37 1109.72 1650.87 1103.08C1646.31 1117.06 1627.62 1177.92 1640.97 1196.1" fill="#6D4038"/><path id="Fill 12_2" fill-rule="evenodd" clip-rule="evenodd" d="M1770.36 1219.2C1796.21 1259.73 1839.68 1205.01 1835.86 1181.83C1828.87 1179.03 1820.22 1176.71 1809.14 1175.18C1799.01 1173.79 1787.01 1172.75 1774.63 1171.97C1763.31 1179.68 1754.25 1193.94 1770.36 1219.2" fill="#F7D3BB"/><path id="Fill 14_2" fill-rule="evenodd" clip-rule="evenodd" d="M1550.18 1160.37C1542.26 1169.52 1523.17 1195.13 1534.39 1218.23C1544.95 1239.97 1557.5 1203.24 1562.98 1184.08C1557.82 1177.07 1553.08 1169.01 1550.18 1160.37" fill="#6D4038"/></g><g id="Object/Floor" transform="translate(318.941 898) scale(0.9974811083123426 1)"><g id="Object/Floor/Plant 2"><g id="Plant 2"><path id="Combined Shape" fill-rule="evenodd" clip-rule="evenodd" d="M209.469 285.671C208.708 285.671 208.079 285.067 208.053 284.302C206.52 238.856 198.952 198.219 185.561 163.521C174.865 135.806 160.449 111.799 142.717 92.1654C112.588 58.8054 83.0132 49.5764 82.7182 49.4864C81.9682 49.2604 81.5452 48.4694 81.7722 47.7204C81.9992 46.9704 82.7952 46.5434 83.5382 46.7744C83.8412 46.8654 114.169 56.3264 144.822 90.2654C162.787 110.157 177.383 134.46 188.205 162.5C201.711 197.494 209.342 238.442 210.886 284.206C210.913 284.988 210.3 285.644 209.518 285.671H209.469ZM216.216 285.059C216.052 285.059 215.885 285.03 215.722 284.969C214.988 284.697 214.614 283.88 214.888 283.147C215.504 281.49 276.674 116.734 288.779 61.0531C288.944 60.2881 289.695 59.7971 290.464 59.9691C291.23 60.1351 291.714 60.8901 291.548 61.6551C279.402 117.532 218.161 282.475 217.544 284.135C217.332 284.705 216.791 285.059 216.216 285.059ZM178.661 283.392C178.83 284.027 179.403 284.446 180.03 284.446C180.151 284.446 180.273 284.43 180.395 284.398C181.152 284.196 181.602 283.42 181.401 282.664C170.865 243.073 147.244 213.436 129.284 195.547C109.832 176.171 92.6017 165.99 92.4297 165.889C91.7557 165.494 90.8857 165.719 90.4917 166.396C90.0957 167.071 90.3227 167.939 90.9987 168.335C91.6747 168.731 158.802 208.768 178.661 283.392Z" fill="#5BA092"/><path id="Combined Shape_2" fill-rule="evenodd" clip-rule="evenodd" d="M168.096 251.628C168.096 251.628 135.656 237.689 137.429 256.19C139.203 274.69 168.096 251.628 168.096 251.628ZM177.98 276.212C177.98 276.212 175.172 249.186 189.131 252.135C207.125 255.937 177.98 276.212 177.98 276.212ZM177.727 278.24C177.727 278.24 154.846 256.317 149.683 272.041C143.325 291.405 177.727 278.24 177.727 278.24Z" fill="#2F6858"/><g id="Base"><path id="Mask" fill-rule="evenodd" clip-rule="evenodd" d="M110.109 280.999L267.468 283.466L249.576 431.316C248.33 441.617 244.189 451.428 237.316 459.201C228.376 469.313 212.961 478.809 187.062 476.343C160.977 473.858 143.9 462.741 133.374 452.316C124.253 443.282 118.911 431.117 118.159 418.301L110.109 280.999Z" fill="#E58857"/><mask id="mask0_413_107652d82c5c79-ffac-4ee3-9920-fec13d9b44c7" style="mask-type:alpha" maskUnits="userSpaceOnUse" x="110" y="280" width="158" height="197" fill="#ffffff"><path id="Mask_2" fill-rule="evenodd" clip-rule="evenodd" d="M110.109 280.999L267.468 283.466L249.576 431.316C248.33 441.617 244.189 451.428 237.316 459.201C228.376 469.313 212.961 478.809 187.062 476.343C160.977 473.858 143.9 462.741 133.374 452.316C124.253 443.282 118.911 431.117 118.159 418.301L110.109 280.999Z" fill="#ffffff"/></mask><g mask="url(#mask0_413_107652d82c5c79-ffac-4ee3-9920-fec13d9b44c7)"><path id="Combined Shape_3" fill-rule="evenodd" clip-rule="evenodd" d="M269.726 292.182C269.286 291.055 268.028 290.503 266.916 290.949C230.914 305.392 196.657 309.297 164.688 304.911C141.867 301.78 122.471 294.821 107.086 286.271C106.037 285.688 104.721 286.077 104.146 287.14C103.571 288.202 103.955 289.536 105.003 290.119C120.829 298.914 140.724 306.052 164.107 309.26C196.799 313.745 231.805 309.754 268.51 295.029C269.622 294.583 270.166 293.308 269.726 292.182ZM115.766 410.49C115.604 410.007 115.625 409.463 115.868 408.971C116.355 407.979 117.554 407.571 118.545 408.058C132.773 415.053 149.718 420.415 169.007 422.767C194.762 425.908 222.157 423.303 250.85 413.575C251.766 413.265 252.749 413.655 253.219 414.458C253.286 414.573 253.342 414.696 253.387 414.827C253.387 414.827 253.387 414.827 253.387 414.827C253.409 414.892 253.427 414.958 253.442 415.024C253.484 415.205 253.499 415.387 253.491 415.566C253.452 416.362 252.936 417.092 252.135 417.363C222.862 427.287 194.864 429.95 168.523 426.738C148.764 424.328 131.392 418.832 116.78 411.648C116.281 411.403 115.93 410.978 115.766 410.49Z" fill="#F4F0F0"/></g></g></g></g></g><g id="Object/Chair" transform="matrix(-1 0 0 1 1480.94 747) scale(0.9978858350951374 1)"><g id="Object/Chair/Stool"><g id="Chair"><path id="Fill 37" fill-rule="evenodd" clip-rule="evenodd" d="M407.952 624C402.998 624.001 398.718 620.221 398.12 615.081L367.593 352.359C364.139 322.63 339.393 300.212 310.03 300.212H228.582C214 300.212 200.059 305.757 189.328 315.826C178.598 325.894 172.023 339.598 170.815 354.415L149.671 613.748C149.219 619.31 144.439 623.442 138.971 622.981C133.516 622.52 129.46 617.635 129.914 612.072L151.058 352.741C152.679 332.857 161.502 314.465 175.902 300.952C190.302 287.44 209.011 280 228.582 280H310.03C349.436 280 382.647 310.085 387.282 349.982L417.809 612.704C418.453 618.247 414.568 623.273 409.131 623.93C408.734 623.978 408.342 624 407.952 624" fill="#2F6858"/><path id="Fill 36" fill-rule="evenodd" clip-rule="evenodd" d="M327.952 624C322.998 624.001 318.718 620.221 318.12 615.081L287.593 352.359C284.139 322.63 259.393 300.212 230.03 300.212H148.582C134 300.212 120.059 305.757 109.328 315.826C98.5977 325.894 92.0231 339.598 90.8151 354.415L69.6714 613.748C69.2187 619.31 64.4387 623.442 58.9711 622.981C53.5156 622.52 49.4599 617.635 49.9135 612.072L71.0582 352.741C72.6789 332.857 81.5017 314.465 95.9019 300.952C110.302 287.44 129.011 280 148.582 280H230.03C269.436 280 302.647 310.085 307.282 349.982L337.809 612.704C338.453 618.247 334.568 623.273 329.131 623.93C328.734 623.978 328.342 624 327.952 624" fill="#5BA092"/><path id="Fill 38" fill-rule="evenodd" clip-rule="evenodd" d="M382.09 487H79.6675C72.6035 487 66.8789 483.195 66.8789 478.5C66.8789 473.806 72.6035 470 79.6675 470H382.09C389.154 470 394.879 473.806 394.879 478.5C394.879 483.195 389.154 487 382.09 487" fill="#5BA092"/><path id="Fill 38 Copy" fill-rule="evenodd" clip-rule="evenodd" d="M321.783 487C322.081 487 319.91 470 319.879 470H391.739C393.473 470 394.879 473.806 394.879 478.5C394.879 483.195 393.473 487 391.739 487H321.783Z" fill="#2F6858"/><path id="Fill 39" fill-rule="evenodd" clip-rule="evenodd" d="M362.841 300H86.9176C77.507 300 69.8789 290.597 69.8789 279C69.8789 267.403 77.507 258 86.9176 258H362.841C372.251 258 379.879 267.403 379.879 279C379.879 290.597 372.251 300 362.841 300" fill="#78BFB1"/></g></g></g><g id="Master/Character/Sitting" transform="matrix(-1 0 0 1 1722.94 407) scale(0.9989690721649485 1)"><g id="Master/Character/Sitting"><g id="Lower Body/Sitting" transform="translate(15.9395 331) scale(0.9988674971687429 1)"><g id="Lower Body/Sitting/Crossed 2"><g id="Crossed 2"><path id="Pants" fill-rule="evenodd" clip-rule="evenodd" d="M456.94 110H274.94V122.65C223.665 140.987 -61.8937 251.686 170.588 366.289C175.701 367.994 181.08 369.566 186.682 371.015L147.691 434.207C147.691 434.207 148.32 447.405 164.032 446.148C171.926 445.516 189.973 436.954 205.978 428.588C226.991 417.604 249.753 410.36 273.261 407.271L397.892 390.894C409.658 388.716 420.321 386.874 430.1 385.246C444.264 385.081 457.532 392.076 465.62 403.794C473.132 414.68 484.651 424.576 499.653 417.398L493.991 374.343C532.974 366.219 561.674 353.921 624.96 312C724.873 245.818 561.725 129.839 456.94 120.539V110ZM285.238 123H284.958C285.024 123.084 285.092 123.169 285.161 123.256C285.186 123.17 285.211 123.084 285.238 123ZM480.525 276.276C483.638 279.389 431.929 292.983 372.388 307.282L267.148 284.205C267.148 284.205 323.844 278.401 365.948 277.076C366.569 277.056 367.154 277.003 367.702 276.918C391.923 276.083 477.594 273.344 480.525 276.276Z" fill="#010101"/><path id="Shoes" fill-rule="evenodd" clip-rule="evenodd" d="M197.275 353.847C200.524 348.582 205.796 344.892 211.857 343.649C216.535 342.689 223.064 341.304 231.014 339.584C225.828 366.862 221.405 394.66 218.659 422.514C214.37 424.392 210.138 426.414 205.978 428.588C189.973 436.955 171.926 445.517 164.032 446.149C148.32 447.406 147.691 434.208 147.691 434.208L197.275 353.847ZM428.585 385.292C427.673 385.335 426.74 385.379 425.788 385.422C451.197 380.132 473.554 374.564 493.236 368.595L499.653 417.399C484.651 424.577 473.132 414.68 465.62 403.795C457.244 391.659 443.313 384.589 428.585 385.292Z" fill="#2F6858"/><path id="Skin" fill-rule="evenodd" clip-rule="evenodd" d="M231.013 339.583C225.826 366.861 221.404 394.659 218.658 422.514C236.034 414.905 254.407 409.749 273.26 407.271L309.816 402.468C301.54 377.51 292.929 352.644 283.564 327.929C263.212 332.526 244.932 336.569 231.013 339.583" fill="#c68e80"/><path id="Pants details" fill-rule="evenodd" clip-rule="evenodd" d="M480.76 277.248C480.224 277.379 479.683 277.049 479.552 276.513C479.422 275.976 479.751 275.435 480.288 275.305L500.95 270.285C501.487 270.154 502.027 270.484 502.158 271.02C502.288 271.557 501.959 272.098 501.422 272.228L480.76 277.248ZM283.785 328.904C283.246 329.026 282.71 328.688 282.589 328.149C282.467 327.611 282.805 327.075 283.344 326.953C313.543 320.131 343.95 313.077 371.078 306.567C371.615 306.439 372.155 306.769 372.284 307.307C372.412 307.844 372.082 308.383 371.545 308.512C344.407 315.024 313.992 322.08 283.785 328.904ZM268.125 284.415C268.241 283.876 267.897 283.344 267.357 283.228L230.919 275.393C230.379 275.277 229.848 275.62 229.732 276.16C229.615 276.7 229.959 277.232 230.499 277.348L266.937 285.183C267.477 285.299 268.009 284.955 268.125 284.415Z" fill="#B9B3B8"/></g></g></g><g id="Hairstyle" transform="translate(247.939 64) scale(0.9953051643192489 1)"><g id="Hairstyle/Short"><g id="Short"><path id="Combined Shape" fill-rule="evenodd" clip-rule="evenodd" d="M167.04 153C172.096 142.619 174.939 130.917 174.939 118.538C174.939 75.7151 140.913 41 98.9395 41C56.9658 41 22.9395 75.7151 22.9395 118.538C22.9395 130.917 25.7827 142.619 30.8394 153H167.04Z" fill="#010101"/><path id="Fill 3" fill-rule="evenodd" clip-rule="evenodd" d="M54.8482 142.939C59.4452 142.939 63.5542 141.242 66.3142 138.569C67.3122 137.602 68.8552 137.505 69.9122 138.409C77.6302 145.016 87.4252 149.716 98.3472 151.64C99.7502 151.888 100.742 153.152 100.66 154.575L99.1002 182H125.539L124.315 160.438C123.986 154.7 128.347 149.187 134.014 148.229C153.648 144.906 165.676 129.452 165.479 106.78C165.204 75.2036 136.555 55.7756 105.001 55.7756C73.4472 55.7756 52.3652 73.6986 52.3652 101.774C52.3652 106.992 53.2612 112.02 54.9052 116.757C55.1422 117.44 54.6642 118.155 53.9402 118.167C49.8312 118.239 39.7392 119.039 39.7922 130.554C39.8232 137.394 46.5332 142.939 54.8482 142.939Z" fill="#c68e80"/><path id="Fill 14" fill-rule="evenodd" clip-rule="evenodd" d="M54.8549 117.841C54.8549 117.841 80.1389 106.775 81.0069 76.8832C81.0069 76.8832 127.65 90.5792 154.787 77.0972C154.787 77.0972 145.818 67.7352 142.099 65.1682C134.882 60.1872 110.286 50.4022 110.286 50.4022L65.5279 58.4212L46.5059 81.9182L54.8549 117.841Z" fill="#010101"/><path id="Accessory" fill-rule="evenodd" clip-rule="evenodd" d="M52.1218 161.415C50.8698 161.64 49.8428 160.424 50.2738 159.227L58.8308 135.477C59.2618 134.28 60.8288 133.998 61.6498 134.971L77.9388 154.256C78.7598 155.228 78.2208 156.725 76.9678 156.95L52.1218 161.415ZM137.095 147.617C142.152 146.485 147.131 144.049 150.973 140.988L159.876 156.843C160.513 157.945 159.717 159.323 158.444 159.323H133.2C131.927 159.323 131.132 157.945 131.768 156.843L137.095 147.617Z" fill="#F3705A"/></g></g></g><g id="Expression" transform="translate(321.939 155) scale(0.989010989010989 1)"><g id="Expression/Glasses"><g id="Glasses"><path id="Combined Shape" fill-rule="evenodd" clip-rule="evenodd" d="M41.3675 28.686C41.3675 18.9275 33.2219 11 23.1535 11C13.085 11 4.93945 18.9275 4.93945 28.686C4.93945 38.4445 13.085 46.372 23.1535 46.372C33.2219 46.372 41.3675 38.4445 41.3675 28.686ZM43.6867 33.9054C41.314 42.8081 33.0143 49.372 23.1535 49.372C11.4461 49.372 1.93945 40.1198 1.93945 28.686C1.93945 17.2522 11.4461 8 23.1535 8C34.8608 8 44.3675 17.2522 44.3675 28.686C44.3675 29.4354 44.3266 30.1753 44.247 30.904L51.2744 30.886C51.2412 30.3919 51.2243 29.8931 51.2243 29.3901C51.2243 17.9873 59.9106 8.7041 70.6763 8.7041C81.4426 8.7041 90.1283 17.987 90.1283 29.3901C90.1283 40.7932 81.4426 50.0761 70.6763 50.0761C61.3674 50.0761 53.6132 43.1353 51.6851 33.885L43.6867 33.9054ZM87.1283 29.3901C87.1283 19.6009 79.7395 11.7041 70.6763 11.7041C61.6136 11.7041 54.2243 19.6012 54.2243 29.3901C54.2243 39.179 61.6136 47.0761 70.6763 47.0761C79.7395 47.0761 87.1283 39.1793 87.1283 29.3901Z" fill="#F3705A"/><path id="Stroke 7" fill-rule="evenodd" clip-rule="evenodd" d="M33.5315 49.5163C33.2464 48.7385 33.6457 47.8768 34.4235 47.5917C35.2013 47.3065 36.063 47.7058 36.3482 48.4836C36.4012 48.6284 36.5244 48.9185 36.7177 49.3038C37.0445 49.9553 37.4419 50.607 37.9059 51.2082C40.1478 54.1131 42.8695 54.7915 46.7365 52.0076C47.4088 51.5236 48.3462 51.6763 48.8302 52.3486C49.3142 53.0209 49.1616 53.9583 48.4893 54.4423C43.1907 58.2568 38.6906 57.1352 35.5309 53.0411C34.5184 51.7291 33.8662 50.4291 33.5315 49.5163Z" fill="#010101"/><path id="Fill 9" fill-rule="evenodd" clip-rule="evenodd" d="M20.3086 34.9805C20.3086 32.6421 21.6514 30.7463 23.3086 30.7463C24.9658 30.7463 26.3086 32.6421 26.3086 34.9805C26.3086 37.319 24.9658 39.2147 23.3086 39.2147C21.6514 39.2147 20.3086 37.319 20.3086 34.9805" fill="#010101"/><path id="Fill 11" fill-rule="evenodd" clip-rule="evenodd" d="M66.0938 34.9805C66.0938 32.6421 67.4366 30.7463 69.0938 30.7463C70.7493 30.7463 72.0938 32.6421 72.0938 34.9805C72.0938 37.319 70.7493 39.2147 69.0938 39.2147C67.4366 39.2147 66.0938 37.319 66.0938 34.9805" fill="#010101"/></g></g></g><g id="Upper Body" transform="translate(64.9395 26) scale(0.9988674971687429 1)"><g id="Upper Body/Pointing"><g id="Body"><g id="Jumper"><path id="Jumper_2" fill-rule="evenodd" clip-rule="evenodd" d="M194.253 253.272C166.221 299.369 146.823 425.155 144.2 495.314C141.616 564.437 139.417 587.117 165.961 593.334L162.881 612.966C162.881 612.966 198.755 621.43 211.213 621.43L213.704 598.914C213.704 598.914 248.206 608.392 244.741 501.342C241.315 395.469 241.122 415.213 241.122 415.213C241.122 415.213 356.992 418.536 406.827 412.929C406.827 412.929 413.267 473.108 484.282 445.698C555.297 418.289 606.378 367.208 606.378 367.208C606.378 367.208 629.468 345.09 618.255 323.91L640.058 308.337C640.058 308.337 625.17 281.447 612.026 267.846L587.109 283.419C587.109 283.419 564.554 251.81 496.318 324.487L461.233 360.979C461.233 360.979 443.585 221.701 337.63 219.267C323.693 218.947 222.285 207.174 194.253 253.272Z" fill="#010101"/><g id="Object"><mask id="mask0_413_827528dad5674-b75c-4a1e-ae77-7d5701be1daf" style="mask-type:alpha" maskUnits="userSpaceOnUse" x="142" y="217" width="499" height="405" fill="#ffffff"><path id="Jumper_3" fill-rule="evenodd" clip-rule="evenodd" d="M194.253 253.272C166.221 299.369 146.823 425.155 144.2 495.314C141.616 564.437 139.417 587.117 165.961 593.334L162.881 612.966C162.881 612.966 198.755 621.43 211.213 621.43L213.704 598.914C213.704 598.914 248.206 608.392 244.741 501.342C241.315 395.469 241.122 415.213 241.122 415.213C241.122 415.213 356.992 418.536 406.827 412.929C406.827 412.929 413.267 473.108 484.282 445.698C555.297 418.289 606.378 367.208 606.378 367.208C606.378 367.208 629.468 345.09 618.255 323.91L640.058 308.337C640.058 308.337 625.17 281.447 612.026 267.846L587.109 283.419C587.109 283.419 564.554 251.81 496.318 324.487L461.233 360.979C461.233 360.979 443.585 221.701 337.63 219.267C323.693 218.947 222.285 207.174 194.253 253.272Z" fill="#ffffff"/></mask><g mask="url(#mask0_413_827528dad5674-b75c-4a1e-ae77-7d5701be1daf)"><g id="Jumper_4"><path id="Pattern" fill-rule="evenodd" clip-rule="evenodd" d="M98.0738 223.046C97.2704 223.248 96.783 224.063 96.9851 224.866L99.4252 234.564C99.6274 235.367 100.443 235.855 101.246 235.653C102.049 235.451 102.537 234.635 102.335 233.832L99.8945 224.134C99.6923 223.331 98.8772 222.844 98.0738 223.046ZM315.536 228.417C315.214 227.654 314.335 227.296 313.571 227.618L304.357 231.503C303.593 231.824 303.235 232.704 303.557 233.467C303.879 234.231 304.759 234.589 305.522 234.267L314.737 230.382C315.5 230.06 315.858 229.181 315.536 228.417ZM132.309 242.027C132.309 242.855 132.981 243.527 133.809 243.527H143.809C144.638 243.527 145.309 242.855 145.309 242.027C145.309 241.198 144.638 240.527 143.809 240.527H133.809C132.981 240.527 132.309 241.198 132.309 242.027ZM242.84 245.479C242.277 246.086 242.312 247.035 242.919 247.599L250.247 254.404C250.854 254.967 251.803 254.932 252.367 254.325C252.93 253.718 252.895 252.769 252.288 252.205L244.96 245.401C244.353 244.837 243.404 244.872 242.84 245.479ZM114.809 376.527C113.981 376.527 113.309 375.855 113.309 375.027C113.309 374.198 113.981 373.527 114.809 373.527H124.809C125.638 373.527 126.309 374.198 126.309 375.027C126.309 375.855 125.638 376.527 124.809 376.527H114.809ZM251.309 404.027C251.309 404.855 251.981 405.527 252.809 405.527H262.809C263.638 405.527 264.309 404.855 264.309 404.027C264.309 403.198 263.638 402.527 262.809 402.527H252.809C251.981 402.527 251.309 403.198 251.309 404.027ZM170.786 266.618C171.549 266.296 172.429 266.654 172.751 267.417C173.073 268.181 172.715 269.06 171.951 269.382L162.737 273.267C161.973 273.589 161.094 273.231 160.772 272.467C160.45 271.704 160.808 270.824 161.571 270.503L170.786 266.618ZM310.751 296.417C310.429 295.654 309.549 295.296 308.786 295.618L299.571 299.503C298.808 299.824 298.45 300.704 298.772 301.467C299.094 302.231 299.973 302.589 300.737 302.267L309.951 298.382C310.715 298.06 311.073 297.181 310.751 296.417ZM151.786 399.618C152.549 399.296 153.429 399.654 153.751 400.417C154.073 401.181 153.715 402.06 152.951 402.382L143.737 406.267C142.973 406.589 142.094 406.231 141.772 405.467C141.45 404.704 141.808 403.824 142.571 403.503L151.786 399.618ZM197.465 237.278C197.312 236.463 197.848 235.679 198.662 235.526C199.476 235.373 200.26 235.908 200.414 236.722L202.264 246.55C202.417 247.364 201.881 248.148 201.067 248.301C200.253 248.455 199.469 247.919 199.315 247.105L197.465 237.278ZM339.134 269.552C338.32 269.706 337.784 270.49 337.937 271.304L339.788 281.131C339.941 281.946 340.725 282.481 341.539 282.328C342.353 282.175 342.889 281.391 342.736 280.576L340.886 270.749C340.732 269.935 339.948 269.399 339.134 269.552ZM180.938 375.304C180.784 374.49 181.32 373.706 182.134 373.552C182.948 373.399 183.732 373.935 183.886 374.749L185.736 384.576C185.889 385.391 185.353 386.175 184.539 386.328C183.725 386.481 182.941 385.946 182.788 385.131L180.938 375.304ZM320.134 402.552C319.32 402.706 318.784 403.49 318.938 404.304L320.788 414.131C320.941 414.946 321.725 415.481 322.539 415.328C323.353 415.175 323.889 414.391 323.736 413.576L321.886 403.749C321.732 402.935 320.948 402.399 320.134 402.552ZM143.723 304.187C143.638 303.363 144.237 302.626 145.061 302.541C145.885 302.456 146.622 303.055 146.708 303.879L147.735 313.826C147.82 314.65 147.221 315.387 146.397 315.472C145.573 315.557 144.836 314.958 144.751 314.134L143.723 304.187ZM283.061 331.541C282.237 331.626 281.638 332.363 281.723 333.187L282.751 343.134C282.836 343.958 283.573 344.557 284.397 344.472C285.221 344.387 285.82 343.65 285.735 342.826L284.708 332.879C284.622 332.055 283.885 331.456 283.061 331.541ZM256.447 278.154C256.362 277.33 256.961 276.593 257.785 276.508C258.609 276.423 259.346 277.022 259.432 277.846L260.459 287.793C260.544 288.617 259.945 289.354 259.121 289.439C258.297 289.524 257.56 288.925 257.475 288.101L256.447 278.154ZM126.061 427.508C125.237 427.593 124.638 428.33 124.723 429.154L125.751 439.101C125.836 439.925 126.573 440.524 127.397 440.439C128.221 440.354 128.82 439.617 128.735 438.793L127.708 428.846C127.622 428.022 126.885 427.423 126.061 427.508ZM181.717 312.339C181.013 311.903 180.795 310.979 181.231 310.274C181.667 309.57 182.591 309.352 183.296 309.788L191.8 315.049C192.504 315.485 192.722 316.409 192.286 317.114C191.851 317.818 190.926 318.036 190.222 317.6L181.717 312.339ZM319.231 339.274C318.795 339.979 319.013 340.903 319.717 341.339L328.222 346.6C328.926 347.036 329.851 346.818 330.286 346.114C330.722 345.409 330.504 344.485 329.8 344.049L321.296 338.788C320.591 338.352 319.667 338.57 319.231 339.274ZM99.3979 299.522C98.6092 299.775 97.7645 299.341 97.5112 298.552C97.258 297.763 97.6922 296.919 98.481 296.665L108.002 293.609C108.791 293.355 109.636 293.79 109.889 294.578C110.142 295.367 109.708 296.212 108.919 296.465L99.3979 299.522ZM235.511 327.552C235.764 328.341 236.609 328.775 237.398 328.522L246.919 325.465C247.708 325.212 248.142 324.367 247.889 323.578C247.636 322.79 246.791 322.355 246.002 322.609L236.481 325.665C235.692 325.919 235.258 326.763 235.511 327.552ZM81.8983 429.985C81.1096 430.238 80.2649 429.804 80.0116 429.016C79.7584 428.227 80.1926 427.382 80.9814 427.129L90.5028 424.072C91.2915 423.819 92.1363 424.253 92.3895 425.042C92.6427 425.831 92.2085 426.675 91.4198 426.929L81.8983 429.985ZM83.4848 354.366C83.2827 353.563 83.7701 352.747 84.5734 352.545C85.3768 352.343 86.192 352.831 86.3941 353.634L88.8342 363.332C89.0363 364.135 88.5489 364.95 87.7455 365.152C86.9422 365.355 86.127 364.867 85.9249 364.064L83.4848 354.366ZM217.573 383.545C216.77 383.747 216.283 384.563 216.485 385.366L218.925 395.064C219.127 395.867 219.942 396.355 220.746 396.152C221.549 395.95 222.036 395.135 221.834 394.332L219.394 384.634C219.192 383.831 218.377 383.343 217.573 383.545ZM272.485 430.366C272.283 429.563 272.77 428.747 273.573 428.545C274.377 428.343 275.192 428.831 275.394 429.634L277.834 439.332C278.036 440.135 277.549 440.95 276.746 441.152C275.942 441.355 275.127 440.867 274.925 440.064L272.485 430.366ZM213.518 307.715C213.783 308.5 214.634 308.921 215.419 308.656L224.893 305.454C225.678 305.189 226.099 304.338 225.833 303.553C225.568 302.768 224.717 302.347 223.932 302.612L214.459 305.814C213.674 306.079 213.253 306.931 213.518 307.715ZM349.92 328.123C349.135 328.389 348.284 327.967 348.019 327.183C347.754 326.398 348.175 325.547 348.96 325.281L358.433 322.079C359.218 321.814 360.069 322.235 360.334 323.02C360.6 323.805 360.178 324.656 359.394 324.921L349.92 328.123ZM194.019 439.183C194.284 439.967 195.135 440.389 195.92 440.123L205.394 436.921C206.178 436.656 206.6 435.805 206.334 435.02C206.069 434.235 205.218 433.814 204.433 434.079L194.96 437.281C194.175 437.547 193.754 438.398 194.019 439.183ZM109.708 325.298C109.487 324.5 109.956 323.674 110.755 323.453C111.553 323.233 112.379 323.702 112.6 324.501L115.259 334.14C115.479 334.939 115.01 335.765 114.212 335.985C113.413 336.206 112.587 335.737 112.367 334.938L109.708 325.298ZM248.755 352.453C247.956 352.674 247.487 353.5 247.708 354.298L250.367 363.938C250.587 364.737 251.413 365.206 252.212 364.985C253.01 364.765 253.479 363.939 253.259 363.14L250.6 353.501C250.379 352.702 249.553 352.233 248.755 352.453ZM156.589 369.879C155.953 370.41 155.007 370.325 154.477 369.689C153.946 369.053 154.031 368.107 154.667 367.576L162.343 361.167C162.979 360.637 163.925 360.722 164.456 361.358C164.987 361.993 164.902 362.939 164.266 363.47L156.589 369.879ZM292.477 398.689C293.007 399.325 293.953 399.41 294.589 398.879L302.266 392.47C302.902 391.939 302.987 390.993 302.456 390.358C301.925 389.722 300.979 389.637 300.343 390.167L292.667 396.576C292.031 397.107 291.946 398.053 292.477 398.689ZM207.063 363.394C206.238 363.467 205.51 362.857 205.437 362.032C205.364 361.207 205.973 360.478 206.798 360.405L216.759 359.523C217.585 359.45 218.313 360.06 218.386 360.885C218.459 361.71 217.849 362.438 217.024 362.511L207.063 363.394ZM343.437 391.032C343.51 391.857 344.238 392.467 345.063 392.394L355.024 391.511C355.849 391.438 356.459 390.71 356.386 389.885C356.313 389.06 355.585 388.45 354.759 388.523L344.798 389.405C343.973 389.478 343.364 390.207 343.437 391.032Z" fill="#B9B3B8"/></g><g id="Jumper_5"><path id="Pattern_2" fill-rule="evenodd" clip-rule="evenodd" d="M98.0738 441.046C97.2704 441.248 96.783 442.063 96.9851 442.866L99.4252 452.564C99.6274 453.367 100.443 453.855 101.246 453.653C102.049 453.451 102.537 452.635 102.335 451.832L99.8945 442.134C99.6923 441.331 98.8772 440.844 98.0738 441.046ZM315.536 446.417C315.214 445.654 314.335 445.296 313.571 445.618L304.357 449.503C303.593 449.824 303.235 450.704 303.557 451.467C303.879 452.231 304.759 452.589 305.522 452.267L314.737 448.382C315.5 448.06 315.858 447.181 315.536 446.417ZM132.309 460.027C132.309 460.855 132.981 461.527 133.809 461.527H143.809C144.638 461.527 145.309 460.855 145.309 460.027C145.309 459.198 144.638 458.527 143.809 458.527H133.809C132.981 458.527 132.309 459.198 132.309 460.027ZM242.84 463.479C242.277 464.086 242.312 465.035 242.919 465.599L250.247 472.404C250.854 472.967 251.803 472.932 252.367 472.325C252.93 471.718 252.895 470.769 252.288 470.205L244.96 463.401C244.353 462.837 243.404 462.872 242.84 463.479ZM114.809 594.527C113.981 594.527 113.309 593.855 113.309 593.027C113.309 592.198 113.981 591.527 114.809 591.527H124.809C125.638 591.527 126.309 592.198 126.309 593.027C126.309 593.855 125.638 594.527 124.809 594.527H114.809ZM251.309 622.027C251.309 622.855 251.981 623.527 252.809 623.527H262.809C263.638 623.527 264.309 622.855 264.309 622.027C264.309 621.198 263.638 620.527 262.809 620.527H252.809C251.981 620.527 251.309 621.198 251.309 622.027ZM170.786 484.618C171.549 484.296 172.429 484.654 172.751 485.417C173.073 486.181 172.715 487.06 171.951 487.382L162.737 491.267C161.973 491.589 161.094 491.231 160.772 490.467C160.45 489.704 160.808 488.824 161.571 488.503L170.786 484.618ZM310.751 514.417C310.429 513.654 309.549 513.296 308.786 513.618L299.571 517.503C298.808 517.824 298.45 518.704 298.772 519.467C299.094 520.231 299.973 520.589 300.737 520.267L309.951 516.382C310.715 516.06 311.073 515.181 310.751 514.417ZM151.786 617.618C152.549 617.296 153.429 617.654 153.751 618.417C154.073 619.181 153.715 620.06 152.951 620.382L143.737 624.267C142.973 624.589 142.094 624.231 141.772 623.467C141.45 622.704 141.808 621.824 142.571 621.503L151.786 617.618ZM197.465 455.278C197.312 454.463 197.848 453.679 198.662 453.526C199.476 453.373 200.26 453.908 200.414 454.722L202.264 464.55C202.417 465.364 201.881 466.148 201.067 466.301C200.253 466.455 199.469 465.919 199.315 465.105L197.465 455.278ZM339.134 487.552C338.32 487.706 337.784 488.49 337.937 489.304L339.788 499.131C339.941 499.946 340.725 500.481 341.539 500.328C342.353 500.175 342.889 499.391 342.736 498.576L340.886 488.749C340.732 487.935 339.948 487.399 339.134 487.552ZM180.938 593.304C180.784 592.49 181.32 591.706 182.134 591.552C182.948 591.399 183.732 591.935 183.886 592.749L185.736 602.576C185.889 603.391 185.353 604.175 184.539 604.328C183.725 604.481 182.941 603.946 182.788 603.131L180.938 593.304ZM320.134 620.552C319.32 620.706 318.784 621.49 318.938 622.304L320.788 632.131C320.941 632.946 321.725 633.481 322.539 633.328C323.353 633.175 323.889 632.391 323.736 631.576L321.886 621.749C321.732 620.935 320.948 620.399 320.134 620.552ZM143.723 522.187C143.638 521.363 144.237 520.626 145.061 520.541C145.885 520.456 146.622 521.055 146.708 521.879L147.735 531.826C147.82 532.65 147.221 533.387 146.397 533.472C145.573 533.557 144.836 532.958 144.751 532.134L143.723 522.187ZM283.061 549.541C282.237 549.626 281.638 550.363 281.723 551.187L282.751 561.134C282.836 561.958 283.573 562.557 284.397 562.472C285.221 562.387 285.82 561.65 285.735 560.826L284.708 550.879C284.622 550.055 283.885 549.456 283.061 549.541ZM256.447 496.154C256.362 495.33 256.961 494.593 257.785 494.508C258.609 494.423 259.346 495.022 259.432 495.846L260.459 505.793C260.544 506.617 259.945 507.354 259.121 507.439C258.297 507.524 257.56 506.925 257.475 506.101L256.447 496.154ZM126.061 645.508C125.237 645.593 124.638 646.33 124.723 647.154L125.751 657.101C125.836 657.925 126.573 658.524 127.397 658.439C128.221 658.354 128.82 657.617 128.735 656.793L127.708 646.846C127.622 646.022 126.885 645.423 126.061 645.508ZM181.717 530.339C181.013 529.903 180.795 528.979 181.231 528.274C181.667 527.57 182.591 527.352 183.296 527.788L191.8 533.049C192.504 533.485 192.722 534.409 192.286 535.114C191.851 535.818 190.926 536.036 190.222 535.6L181.717 530.339ZM319.231 557.274C318.795 557.979 319.013 558.903 319.717 559.339L328.222 564.6C328.926 565.036 329.851 564.818 330.286 564.114C330.722 563.409 330.504 562.485 329.8 562.049L321.296 556.788C320.591 556.352 319.667 556.57 319.231 557.274ZM99.3979 517.522C98.6092 517.775 97.7645 517.341 97.5112 516.552C97.258 515.763 97.6922 514.919 98.481 514.665L108.002 511.609C108.791 511.355 109.636 511.79 109.889 512.578C110.142 513.367 109.708 514.212 108.919 514.465L99.3979 517.522ZM235.511 545.552C235.764 546.341 236.609 546.775 237.398 546.522L246.919 543.465C247.708 543.212 248.142 542.367 247.889 541.578C247.636 540.79 246.791 540.355 246.002 540.609L236.481 543.665C235.692 543.919 235.258 544.763 235.511 545.552ZM81.8983 647.985C81.1096 648.238 80.2649 647.804 80.0116 647.016C79.7584 646.227 80.1926 645.382 80.9814 645.129L90.5028 642.072C91.2915 641.819 92.1363 642.253 92.3895 643.042C92.6427 643.831 92.2085 644.675 91.4198 644.929L81.8983 647.985ZM83.4848 572.366C83.2827 571.563 83.7701 570.747 84.5734 570.545C85.3768 570.343 86.192 570.831 86.3941 571.634L88.8342 581.332C89.0363 582.135 88.5489 582.95 87.7455 583.152C86.9422 583.355 86.127 582.867 85.9249 582.064L83.4848 572.366ZM217.573 601.545C216.77 601.747 216.283 602.563 216.485 603.366L218.925 613.064C219.127 613.867 219.942 614.355 220.746 614.152C221.549 613.95 222.036 613.135 221.834 612.332L219.394 602.634C219.192 601.831 218.377 601.343 217.573 601.545ZM272.485 648.366C272.283 647.563 272.77 646.747 273.573 646.545C274.377 646.343 275.192 646.831 275.394 647.634L277.834 657.332C278.036 658.135 277.549 658.95 276.746 659.152C275.942 659.355 275.127 658.867 274.925 658.064L272.485 648.366ZM213.518 525.715C213.783 526.5 214.634 526.921 215.419 526.656L224.893 523.454C225.678 523.189 226.099 522.338 225.833 521.553C225.568 520.768 224.717 520.347 223.932 520.612L214.459 523.814C213.674 524.079 213.253 524.931 213.518 525.715ZM349.92 546.123C349.135 546.389 348.284 545.967 348.019 545.183C347.754 544.398 348.175 543.547 348.96 543.281L358.433 540.079C359.218 539.814 360.069 540.235 360.334 541.02C360.6 541.805 360.178 542.656 359.394 542.921L349.92 546.123ZM194.019 657.183C194.284 657.967 195.135 658.389 195.92 658.123L205.394 654.921C206.178 654.656 206.6 653.805 206.334 653.02C206.069 652.235 205.218 651.814 204.433 652.079L194.96 655.281C194.175 655.547 193.754 656.398 194.019 657.183ZM109.708 543.298C109.487 542.5 109.956 541.674 110.755 541.453C111.553 541.233 112.379 541.702 112.6 542.501L115.259 552.14C115.479 552.939 115.01 553.765 114.212 553.985C113.413 554.206 112.587 553.737 112.367 552.938L109.708 543.298ZM248.755 570.453C247.956 570.674 247.487 571.5 247.708 572.298L250.367 581.938C250.587 582.737 251.413 583.206 252.212 582.985C253.01 582.765 253.479 581.939 253.259 581.14L250.6 571.501C250.379 570.702 249.553 570.233 248.755 570.453ZM156.589 587.879C155.953 588.41 155.007 588.325 154.477 587.689C153.946 587.053 154.031 586.107 154.667 585.576L162.343 579.167C162.979 578.637 163.925 578.722 164.456 579.358C164.987 579.993 164.902 580.939 164.266 581.47L156.589 587.879ZM292.477 616.689C293.007 617.325 293.953 617.41 294.589 616.879L302.266 610.47C302.902 609.939 302.987 608.993 302.456 608.358C301.925 607.722 300.979 607.637 300.343 608.167L292.667 614.576C292.031 615.107 291.946 616.053 292.477 616.689ZM207.063 581.394C206.238 581.467 205.51 580.857 205.437 580.032C205.364 579.207 205.973 578.478 206.798 578.405L216.759 577.523C217.585 577.45 218.313 578.06 218.386 578.885C218.459 579.71 217.849 580.438 217.024 580.511L207.063 581.394ZM343.437 609.032C343.51 609.857 344.238 610.467 345.063 610.394L355.024 609.511C355.849 609.438 356.459 608.71 356.386 607.885C356.313 607.06 355.585 606.45 354.759 606.523L344.798 607.405C343.973 607.478 343.364 608.207 343.437 609.032Z" fill="#B9B3B8"/></g><g id="Jumper_6"><path id="Pattern_3" fill-rule="evenodd" clip-rule="evenodd" d="M378.074 223.046C377.27 223.248 376.783 224.063 376.985 224.866L379.425 234.564C379.627 235.367 380.443 235.855 381.246 235.653C382.049 235.451 382.537 234.635 382.335 233.832L379.894 224.134C379.692 223.331 378.877 222.844 378.074 223.046ZM595.536 228.417C595.214 227.654 594.335 227.296 593.571 227.618L584.357 231.503C583.593 231.824 583.235 232.704 583.557 233.467C583.879 234.231 584.759 234.589 585.522 234.267L594.737 230.382C595.5 230.06 595.858 229.181 595.536 228.417ZM412.309 242.027C412.309 242.855 412.981 243.527 413.809 243.527H423.809C424.638 243.527 425.309 242.855 425.309 242.027C425.309 241.198 424.638 240.527 423.809 240.527H413.809C412.981 240.527 412.309 241.198 412.309 242.027ZM522.84 245.479C522.277 246.086 522.312 247.035 522.919 247.599L530.247 254.404C530.854 254.967 531.803 254.932 532.367 254.325C532.93 253.718 532.895 252.769 532.288 252.205L524.96 245.401C524.353 244.837 523.404 244.872 522.84 245.479ZM394.809 376.527C393.981 376.527 393.309 375.855 393.309 375.027C393.309 374.198 393.981 373.527 394.809 373.527H404.809C405.638 373.527 406.309 374.198 406.309 375.027C406.309 375.855 405.638 376.527 404.809 376.527H394.809ZM531.309 404.027C531.309 404.855 531.981 405.527 532.809 405.527H542.809C543.638 405.527 544.309 404.855 544.309 404.027C544.309 403.198 543.638 402.527 542.809 402.527H532.809C531.981 402.527 531.309 403.198 531.309 404.027ZM450.786 266.618C451.549 266.296 452.429 266.654 452.751 267.417C453.073 268.181 452.715 269.06 451.951 269.382L442.737 273.267C441.973 273.589 441.094 273.231 440.772 272.467C440.45 271.704 440.808 270.824 441.571 270.503L450.786 266.618ZM590.751 296.417C590.429 295.654 589.549 295.296 588.786 295.618L579.571 299.503C578.808 299.824 578.45 300.704 578.772 301.467C579.094 302.231 579.973 302.589 580.737 302.267L589.951 298.382C590.715 298.06 591.073 297.181 590.751 296.417ZM431.786 399.618C432.549 399.296 433.429 399.654 433.751 400.417C434.073 401.181 433.715 402.06 432.951 402.382L423.737 406.267C422.973 406.589 422.094 406.231 421.772 405.467C421.45 404.704 421.808 403.824 422.571 403.503L431.786 399.618ZM477.465 237.278C477.312 236.463 477.848 235.679 478.662 235.526C479.476 235.373 480.26 235.908 480.414 236.722L482.264 246.55C482.417 247.364 481.881 248.148 481.067 248.301C480.253 248.455 479.469 247.919 479.315 247.105L477.465 237.278ZM619.134 269.552C618.32 269.706 617.784 270.49 617.937 271.304L619.788 281.131C619.941 281.946 620.725 282.481 621.539 282.328C622.353 282.175 622.889 281.391 622.736 280.576L620.886 270.749C620.732 269.935 619.948 269.399 619.134 269.552ZM460.938 375.304C460.784 374.49 461.32 373.706 462.134 373.552C462.948 373.399 463.732 373.935 463.886 374.749L465.736 384.576C465.889 385.391 465.353 386.175 464.539 386.328C463.725 386.481 462.941 385.946 462.788 385.131L460.938 375.304ZM600.134 402.552C599.32 402.706 598.784 403.49 598.938 404.304L600.788 414.131C600.941 414.946 601.725 415.481 602.539 415.328C603.353 415.175 603.889 414.391 603.736 413.576L601.886 403.749C601.732 402.935 600.948 402.399 600.134 402.552ZM423.723 304.187C423.638 303.363 424.237 302.626 425.061 302.541C425.885 302.456 426.622 303.055 426.708 303.879L427.735 313.826C427.82 314.65 427.221 315.387 426.397 315.472C425.573 315.557 424.836 314.958 424.751 314.134L423.723 304.187ZM563.061 331.541C562.237 331.626 561.638 332.363 561.723 333.187L562.751 343.134C562.836 343.958 563.573 344.557 564.397 344.472C565.221 344.387 565.82 343.65 565.735 342.826L564.708 332.879C564.622 332.055 563.885 331.456 563.061 331.541ZM536.447 278.154C536.362 277.33 536.961 276.593 537.785 276.508C538.609 276.423 539.346 277.022 539.432 277.846L540.459 287.793C540.544 288.617 539.945 289.354 539.121 289.439C538.297 289.524 537.56 288.925 537.475 288.101L536.447 278.154ZM406.061 427.508C405.237 427.593 404.638 428.33 404.723 429.154L405.751 439.101C405.836 439.925 406.573 440.524 407.397 440.439C408.221 440.354 408.82 439.617 408.735 438.793L407.708 428.846C407.622 428.022 406.885 427.423 406.061 427.508ZM461.717 312.339C461.013 311.903 460.795 310.979 461.231 310.274C461.667 309.57 462.591 309.352 463.296 309.788L471.8 315.049C472.504 315.485 472.722 316.409 472.286 317.114C471.851 317.818 470.926 318.036 470.222 317.6L461.717 312.339ZM599.231 339.274C598.795 339.979 599.013 340.903 599.717 341.339L608.222 346.6C608.926 347.036 609.851 346.818 610.286 346.114C610.722 345.409 610.504 344.485 609.8 344.049L601.296 338.788C600.591 338.352 599.667 338.57 599.231 339.274ZM379.398 299.522C378.609 299.775 377.764 299.341 377.511 298.552C377.258 297.763 377.692 296.919 378.481 296.665L388.002 293.609C388.791 293.355 389.636 293.79 389.889 294.578C390.142 295.367 389.708 296.212 388.919 296.465L379.398 299.522ZM515.511 327.552C515.764 328.341 516.609 328.775 517.398 328.522L526.919 325.465C527.708 325.212 528.142 324.367 527.889 323.578C527.636 322.79 526.791 322.355 526.002 322.609L516.481 325.665C515.692 325.919 515.258 326.763 515.511 327.552ZM361.898 429.985C361.11 430.238 360.265 429.804 360.012 429.016C359.758 428.227 360.193 427.382 360.981 427.129L370.503 424.072C371.292 423.819 372.136 424.253 372.389 425.042C372.643 425.831 372.209 426.675 371.42 426.929L361.898 429.985ZM363.485 354.366C363.283 353.563 363.77 352.747 364.573 352.545C365.377 352.343 366.192 352.831 366.394 353.634L368.834 363.332C369.036 364.135 368.549 364.95 367.746 365.152C366.942 365.355 366.127 364.867 365.925 364.064L363.485 354.366ZM497.573 383.545C496.77 383.747 496.283 384.563 496.485 385.366L498.925 395.064C499.127 395.867 499.942 396.355 500.746 396.152C501.549 395.95 502.036 395.135 501.834 394.332L499.394 384.634C499.192 383.831 498.377 383.343 497.573 383.545ZM552.485 430.366C552.283 429.563 552.77 428.747 553.573 428.545C554.377 428.343 555.192 428.831 555.394 429.634L557.834 439.332C558.036 440.135 557.549 440.95 556.746 441.152C555.942 441.355 555.127 440.867 554.925 440.064L552.485 430.366ZM493.518 307.715C493.783 308.5 494.634 308.921 495.419 308.656L504.893 305.454C505.678 305.189 506.099 304.338 505.833 303.553C505.568 302.768 504.717 302.347 503.932 302.612L494.459 305.814C493.674 306.079 493.253 306.931 493.518 307.715ZM629.92 328.123C629.135 328.389 628.284 327.967 628.019 327.183C627.754 326.398 628.175 325.547 628.96 325.281L638.433 322.079C639.218 321.814 640.069 322.235 640.334 323.02C640.6 323.805 640.178 324.656 639.394 324.921L629.92 328.123ZM474.019 439.183C474.284 439.967 475.135 440.389 475.92 440.123L485.394 436.921C486.178 436.656 486.6 435.805 486.334 435.02C486.069 434.235 485.218 433.814 484.433 434.079L474.96 437.281C474.175 437.547 473.754 438.398 474.019 439.183ZM389.708 325.298C389.487 324.5 389.956 323.674 390.755 323.453C391.553 323.233 392.379 323.702 392.6 324.501L395.259 334.14C395.479 334.939 395.01 335.765 394.212 335.985C393.413 336.206 392.587 335.737 392.367 334.938L389.708 325.298ZM528.755 352.453C527.956 352.674 527.487 353.5 527.708 354.298L530.367 363.938C530.587 364.737 531.413 365.206 532.212 364.985C533.01 364.765 533.479 363.939 533.259 363.14L530.6 353.501C530.379 352.702 529.553 352.233 528.755 352.453ZM436.589 369.879C435.953 370.41 435.007 370.325 434.477 369.689C433.946 369.053 434.031 368.107 434.667 367.576L442.343 361.167C442.979 360.637 443.925 360.722 444.456 361.358C444.987 361.993 444.902 362.939 444.266 363.47L436.589 369.879ZM572.477 398.689C573.007 399.325 573.953 399.41 574.589 398.879L582.266 392.47C582.902 391.939 582.987 390.993 582.456 390.358C581.925 389.722 580.979 389.637 580.343 390.167L572.667 396.576C572.031 397.107 571.946 398.053 572.477 398.689ZM487.063 363.394C486.238 363.467 485.51 362.857 485.437 362.032C485.364 361.207 485.973 360.478 486.798 360.405L496.759 359.523C497.585 359.45 498.313 360.06 498.386 360.885C498.459 361.71 497.849 362.438 497.024 362.511L487.063 363.394ZM623.437 391.032C623.51 391.857 624.238 392.467 625.063 392.394L635.024 391.511C635.849 391.438 636.459 390.71 636.386 389.885C636.313 389.06 635.585 388.45 634.759 388.523L624.798 389.405C623.973 389.478 623.364 390.207 623.437 391.032Z" fill="#B9B3B8"/></g></g></g><path id="Jumper Details" fill-rule="evenodd" clip-rule="evenodd" d="M231.766 412.752C230.385 412.386 229.271 411.997 228.403 411.612C228.23 411.536 228.081 411.466 227.956 411.405L230.356 326.028C230.372 325.476 229.937 325.016 229.385 325C228.832 324.985 228.372 325.42 228.357 325.972L225.94 411.957C225.93 412.301 226.098 412.626 226.385 412.817C227.128 413.313 228.696 414.007 231.254 414.685C233.916 415.39 237.163 415.921 241.048 416.21C241.599 416.251 242.079 415.838 242.12 415.287C242.161 414.737 241.747 414.257 241.197 414.216C237.432 413.936 234.306 413.425 231.766 412.752ZM407.037 413.907C407.577 413.792 407.921 413.26 407.805 412.72L390.883 333.76C390.767 333.22 390.236 332.876 389.696 332.992C389.156 333.108 388.812 333.639 388.928 334.179L405.849 413.139C405.965 413.679 406.497 414.023 407.037 413.907Z" fill="#B9B3B8"/></g><path id="Skin" fill-rule="evenodd" clip-rule="evenodd" d="M612.025 268.846C612.025 268.846 610.879 248.023 639.424 232.01C639.424 232.01 651.895 224.587 660.755 224.685C663.709 224.718 666.014 225.322 667.289 228.509L707.949 211.008C709.687 210.315 711.547 209.927 713.416 210.012C715.818 210.12 718.494 212.033 718.307 215.307C717.68 226.279 700.206 234.333 700.206 234.333C700.206 234.333 703.806 236.133 705.006 241.532C706.235 247.064 704.406 251.281 704.406 251.281C704.406 251.281 708.14 252.426 708.867 258.485C709.135 260.715 709.086 264.894 706.797 266.97C706.797 266.97 713.884 270.881 709.679 281.295C709.679 281.295 700.58 299.185 673.618 296.938C673.618 296.938 657.894 306.569 640.057 309.337C640.057 309.337 620.528 275.273 612.025 268.846ZM162.88 613.965C153.442 623.96 149.932 642.872 149.932 642.872C149.932 642.872 127.477 682.471 126.965 695.455C126.284 712.74 138.803 707.066 138.803 707.066C137.353 714.117 138.075 716.325 142.992 718.528C146.227 719.979 151.417 714.931 151.417 714.931C153.673 725.884 159.361 723.303 161.11 722.51C161.169 722.483 161.224 722.458 161.274 722.436C165.102 720.732 171.599 708.778 171.599 708.778C169.268 724.767 184.059 723.739 184.726 722.407C185.392 721.075 190.286 697.943 190.286 697.943L211.213 622.429L186.166 619.031L162.88 613.965ZM332.484 218.864C333.566 218.864 306.376 244.132 273.016 218.571C273.016 218.571 310.818 215.968 332.484 218.864Z" fill="#c68e80"/><path id="Skin Shadows" fill-rule="evenodd" clip-rule="evenodd" d="M647.687 269.989C648.776 268.264 649.417 264.689 649.776 259.661C650.023 256.193 650.098 252.591 650.078 249.566C663.015 244.512 668.268 237.089 668.289 228.511C668.29 227.959 667.843 227.51 667.291 227.509C666.739 227.507 666.29 227.954 666.289 228.506C666.27 236.381 661.369 243.176 648.718 247.946C648.323 248.095 648.064 248.476 648.071 248.898C648.072 248.964 648.074 249.092 648.075 249.277C648.103 252.314 648.032 255.996 647.781 259.519C647.448 264.192 646.839 267.586 645.996 268.921C645.701 269.388 645.841 270.005 646.308 270.3C646.775 270.595 647.392 270.456 647.687 269.989ZM701.095 233.874C700.842 233.383 700.239 233.191 699.748 233.444L699.368 233.639L698.87 233.896L698.293 234.192C697.135 234.788 695.842 235.451 694.448 236.166C690.463 238.208 686.461 240.251 682.7 242.156L682.252 242.383C673.884 246.621 668.01 249.526 665.79 250.493C659.763 253.116 656.772 256.586 656.485 260.466C656.272 263.349 657.714 266.271 659.512 267.596C661.464 269.034 663.639 269.35 668.138 268.419C664.804 270.865 662.798 273.62 662.76 276.719C662.708 281.064 664.552 283.654 667.607 284.669C668.294 284.897 668.994 285.032 669.684 285.093L669.634 285.159C667.912 287.431 667.219 289.958 668.244 292.546C669.243 295.068 670.969 296.763 673.305 297.711C673.816 297.918 674.4 297.672 674.607 297.16C674.815 296.648 674.568 296.065 674.057 295.857C672.219 295.112 670.898 293.814 670.103 291.81C669.38 289.983 669.886 288.137 671.228 286.367C671.557 285.932 671.911 285.54 672.264 285.198C672.366 285.099 672.456 285.016 672.53 284.949C672.578 284.94 672.631 284.93 672.688 284.919C673.029 284.851 673.423 284.769 673.867 284.672C675.13 284.393 676.536 284.046 678.05 283.625C682.375 282.422 686.702 280.866 690.748 278.918C694.095 277.307 697.105 275.491 699.695 273.457C702.598 271.177 704.688 269.522 706.099 268.391C706.594 267.995 706.969 267.691 707.241 267.47C707.407 267.334 707.502 267.255 707.544 267.22C707.966 266.863 708.019 266.232 707.662 265.81C707.305 265.389 706.674 265.336 706.253 265.693C706.22 265.72 706.133 265.792 705.976 265.92C705.709 266.138 705.339 266.437 704.848 266.831C703.443 267.957 701.358 269.608 698.46 271.884C695.992 273.822 693.104 275.564 689.88 277.116C685.951 279.008 681.733 280.524 677.514 281.698C676.037 282.109 674.666 282.448 673.437 282.718C673.008 282.813 672.628 282.892 672.302 282.956C672.241 282.968 672.187 282.979 672.139 282.988C672.09 282.997 672.047 283.005 672.011 283.012L671.931 283.027L671.909 283.031C671.901 283.032 671.893 283.034 671.884 283.035C671.819 283.047 671.715 283.062 671.571 283.078C670.511 283.194 669.326 283.133 668.238 282.771C666.009 282.03 664.719 280.218 664.76 276.743C664.792 274.135 666.884 271.587 670.422 269.27C671.716 268.423 673.108 267.671 674.5 267.025C674.987 266.798 675.439 266.602 675.843 266.436C675.981 266.38 676.095 266.334 676.183 266.299C676.249 266.274 676.3 266.255 676.336 266.241L676.353 266.235C676.489 266.194 676.627 266.153 676.766 266.111C685.478 263.498 701.193 255.228 705.043 252.052C705.469 251.7 705.529 251.07 705.177 250.644C704.826 250.218 704.196 250.158 703.77 250.509C700.129 253.513 684.652 261.657 676.191 264.196C665.926 267.275 662.88 267.594 660.698 265.985C659.438 265.057 658.319 262.789 658.48 260.613C658.705 257.557 661.188 254.677 666.588 252.326C668.861 251.337 674.741 248.429 683.156 244.167L683.604 243.94C687.368 242.033 691.373 239.99 695.36 237.946C696.755 237.231 698.049 236.567 699.208 235.971C699.614 235.762 699.854 235.639 700.284 235.417L700.664 235.221C701.155 234.968 701.348 234.365 701.095 233.874ZM180.697 680.165C180.882 679.644 181.454 679.372 181.974 679.557C182.495 679.742 182.767 680.314 182.582 680.834L172.541 709.113C172.356 709.634 171.785 709.906 171.264 709.721C170.744 709.536 170.472 708.964 170.656 708.444L180.697 680.165ZM168.162 682.009C167.681 681.737 167.071 681.906 166.799 682.387C166.766 682.446 166.702 682.558 166.61 682.722C166.457 682.995 166.279 683.312 166.079 683.67C165.507 684.693 164.869 685.841 164.183 687.086C162.221 690.644 160.26 694.272 158.429 697.759C158.075 698.431 157.73 699.093 157.393 699.743C153.886 706.504 151.455 711.655 150.468 714.615C150.293 715.139 150.576 715.705 151.1 715.88C151.624 716.055 152.19 715.772 152.365 715.248C153.307 712.421 155.711 707.33 159.168 700.664C159.504 700.017 159.848 699.358 160.199 698.689C162.024 695.215 163.979 691.598 165.934 688.051C166.619 686.81 167.254 685.666 167.824 684.646C168.024 684.29 168.201 683.974 168.353 683.703C168.445 683.54 168.508 683.428 168.54 683.372C168.812 682.891 168.642 682.281 168.162 682.009ZM150.783 677.057C151.096 676.603 151.719 676.488 152.174 676.801C152.629 677.114 152.744 677.737 152.431 678.192C152.397 678.24 152.328 678.344 152.225 678.502C152.05 678.771 151.846 679.093 151.616 679.469C150.956 680.547 150.218 681.833 149.422 683.323C147.143 687.591 144.861 692.63 142.731 698.409C141.675 701.271 140.682 704.253 139.762 707.35C139.604 707.88 139.048 708.181 138.518 708.024C137.989 707.867 137.687 707.31 137.844 706.781C138.777 703.641 139.784 700.619 140.854 697.717C143.017 691.85 145.336 686.728 147.658 682.381C148.472 680.856 149.23 679.536 149.911 678.424C150.15 678.033 150.364 677.695 150.548 677.411C150.661 677.238 150.74 677.12 150.783 677.057ZM150.26 641.928C149.739 641.747 149.169 642.022 148.987 642.544C148.948 642.655 148.9 642.83 148.854 643.061C148.535 644.67 148.792 646.482 150.048 648.183C150.713 649.082 151.626 649.885 152.806 650.573C153.283 650.852 153.895 650.69 154.173 650.213C154.452 649.736 154.291 649.124 153.814 648.846C152.863 648.291 152.156 647.669 151.657 646.994C150.775 645.8 150.598 644.551 150.816 643.449C150.843 643.314 150.867 643.228 150.876 643.201C151.058 642.68 150.782 642.11 150.26 641.928Z" fill="#371D0A"/></g></g></g></g></g></g></svg>